<svg width="2400" height="750" viewBox="0 0 2400 750" fill="none" xmlns="http://www.w3.org/2000/svg">
<g clip-path="url(#clip0_131_2)">
<rect width="2400" height="750" fill="#AFDADE"/>
<path fill-rule="evenodd" clip-rule="evenodd" d="M1184.28 117.258H746.28C746.28 100.715 771.736 87.0405 804.775 84.862C807.927 61.557 836.93 43.3027 872.243 43.3027C888.501 43.3027 903.422 47.1722 915.098 53.6224C926.774 47.1722 941.694 43.3027 957.953 43.3027C978.286 43.3027 996.527 49.355 1008.95 58.9389C1021.31 49.3146 1038.87 43.3027 1058.36 43.3027C1090.75 43.3027 1117.84 59.921 1124.52 82.1298C1125.41 82.1058 1126.29 82.0936 1127.18 82.0936C1158.74 82.0936 1184.32 97.2854 1184.32 116.025C1184.32 116.438 1184.31 116.849 1184.28 117.258Z" fill="#F8F8F8"/>
<path fill-rule="evenodd" clip-rule="evenodd" d="M2384.28 117.258H1946.28C1946.28 100.715 1971.74 87.0405 2004.78 84.862C2007.93 61.557 2036.93 43.3027 2072.24 43.3027C2088.5 43.3027 2103.42 47.1722 2115.1 53.6224C2126.77 47.1722 2141.69 43.3027 2157.95 43.3027C2178.29 43.3027 2196.53 49.355 2208.95 58.9389C2221.31 49.3146 2238.87 43.3027 2258.36 43.3027C2290.75 43.3027 2317.84 59.921 2324.52 82.1298C2325.41 82.1058 2326.29 82.0936 2327.18 82.0936C2358.74 82.0936 2384.32 97.2854 2384.32 116.025C2384.32 116.438 2384.31 116.849 2384.28 117.258Z" fill="#F8F8F8"/>
<path fill-rule="evenodd" clip-rule="evenodd" d="M541.925 618.401H103.924C103.924 601.857 129.38 588.183 162.419 586.005C165.57 562.7 194.573 544.445 229.886 544.445C246.144 544.445 261.065 548.315 272.741 554.765C284.417 548.315 299.338 544.445 315.596 544.445C335.93 544.445 354.171 550.498 366.59 560.081C378.949 550.457 396.514 544.445 416 544.445C448.396 544.445 475.482 561.064 482.168 583.272C483.05 583.248 483.937 583.236 484.829 583.236C516.382 583.236 541.962 598.428 541.962 617.168C541.962 617.581 541.949 617.992 541.925 618.401Z" fill="#F8F8F8"/>
<path fill-rule="evenodd" clip-rule="evenodd" d="M1741.92 618.401H1303.92C1303.92 601.857 1329.38 588.183 1362.42 586.005C1365.57 562.7 1394.57 544.445 1429.89 544.445C1446.14 544.445 1461.07 548.315 1472.74 554.765C1484.42 548.315 1499.34 544.445 1515.6 544.445C1535.93 544.445 1554.17 550.498 1566.59 560.081C1578.95 550.457 1596.51 544.445 1616 544.445C1648.4 544.445 1675.48 561.064 1682.17 583.272C1683.05 583.248 1683.94 583.236 1684.83 583.236C1716.38 583.236 1741.96 598.428 1741.96 617.168C1741.96 617.581 1741.95 617.992 1741.92 618.401Z" fill="#F8F8F8"/>
<path fill-rule="evenodd" clip-rule="evenodd" d="M1137.15 469.941H699.145C699.145 453.397 724.601 439.723 757.639 437.545C760.791 414.24 789.794 395.985 825.107 395.985C841.365 395.985 856.286 399.855 867.962 406.305C879.638 399.855 894.559 395.985 910.817 395.985C931.15 395.985 949.392 402.038 961.81 411.621C974.17 401.997 991.735 395.985 1011.22 395.985C1043.62 395.985 1070.7 412.604 1077.39 434.812C1078.27 434.788 1079.16 434.776 1080.05 434.776C1111.6 434.776 1137.18 449.968 1137.18 468.708C1137.18 469.121 1137.17 469.532 1137.15 469.941Z" fill="#F8F8F8"/>
<path fill-rule="evenodd" clip-rule="evenodd" d="M2337.15 469.941H1899.14C1899.14 453.397 1924.6 439.723 1957.64 437.545C1960.79 414.24 1989.79 395.985 2025.11 395.985C2041.37 395.985 2056.29 399.855 2067.96 406.305C2079.64 399.855 2094.56 395.985 2110.82 395.985C2131.15 395.985 2149.39 402.038 2161.81 411.621C2174.17 401.997 2191.73 395.985 2211.22 395.985C2243.62 395.985 2270.7 412.604 2277.39 434.812C2278.27 434.788 2279.16 434.776 2280.05 434.776C2311.6 434.776 2337.18 449.968 2337.18 468.708C2337.18 469.121 2337.17 469.532 2337.15 469.941Z" fill="#F8F8F8"/>
<path fill-rule="evenodd" clip-rule="evenodd" d="M484.85 293.6H46.8486C46.8486 277.056 72.3046 263.382 105.343 261.203C108.495 237.898 137.498 219.644 172.811 219.644C189.069 219.644 203.99 223.513 215.666 229.964C227.342 223.513 242.263 219.644 258.521 219.644C278.854 219.644 297.096 225.696 309.514 235.28C321.874 225.656 339.439 219.644 358.924 219.644C391.321 219.644 418.407 236.262 425.093 258.471C425.975 258.447 426.862 258.435 427.753 258.435C459.307 258.435 484.887 273.627 484.887 292.367C484.887 292.779 484.874 293.19 484.85 293.6Z" fill="#F8F8F8"/>
<path fill-rule="evenodd" clip-rule="evenodd" d="M1684.85 293.6H1246.85C1246.85 277.056 1272.3 263.382 1305.34 261.203C1308.5 237.898 1337.5 219.644 1372.81 219.644C1389.07 219.644 1403.99 223.513 1415.67 229.964C1427.34 223.513 1442.26 219.644 1458.52 219.644C1478.85 219.644 1497.1 225.696 1509.51 235.28C1521.87 225.656 1539.44 219.644 1558.92 219.644C1591.32 219.644 1618.41 236.262 1625.09 258.471C1625.97 258.447 1626.86 258.435 1627.75 258.435C1659.31 258.435 1684.89 273.627 1684.89 292.367C1684.89 292.779 1684.87 293.19 1684.85 293.6Z" fill="#F8F8F8"/>
</g>
<defs>
<clipPath id="clip0_131_2">
<rect width="2400" height="750" fill="white"/>
</clipPath>
</defs>
</svg>
