<?xml version="1.0" encoding="UTF-8"?>
<svg id="Layer_2" data-name="Layer 2" xmlns="http://www.w3.org/2000/svg" xmlns:xlink="http://www.w3.org/1999/xlink" viewBox="0 0 621 514">
  <defs>
    <clipPath id="clippath">
      <path d="M491.95,90.39l31.22,19.85-106.74,128.57s-41.55,58.62-91.06,85.83c0,0-10.13,2.32-14.19,17.37-4.05,15.06-15.92,67.49-100.1,94.34,0,0-62.77,119.74-84.54,10.52,0,0-24.26,8.33-37.32,9.78,0,0-7.91-14.71-7.91-27.41,0,0,56.34-62.8,69.77-67.16,0,0,18.64-74.5,71.25-86.84,0,0,6.8-18.4,17.84-32.31s32.1-29.93,32.1-29.93l-49.94,31.73s-17.06,28.13-33.4,49.34l-31.77-10.4s18.1-54.42,35.73-70.59c23.73-21.76,68.21-59.62,117.61-57.91,0,0,20.01,2.6,37.12,5.1l60.08,2.15s28.05-16.42,50.89-40.23c19.66-20.5,33.37-31.83,33.37-31.83Z" fill="#e82f2d"/>
    </clipPath>
    <clipPath id="clippath-1">
      <polygon points="359.06 143.97 347.62 160.3 371.73 192.35 407.81 174.33 407.81 143.97 359.06 143.97" fill="#d3932a"/>
    </clipPath>
  </defs>
  <g>
    <path d="M424.15,105.46s4.91-8.55,12.61-5.34,9.62,22.06-4.06,32.18-17.31-2.91-17.31-2.91l8.76-23.93Z" fill="#8e6728"/>
    <path d="M344.05,105.7s-4.91-8.55-12.61-5.34-9.62,22.06,4.06,32.18,17.31-2.91,17.31-2.91l-8.76-23.93Z" fill="#8e6728"/>
    <path d="M421.56,215.47s-19.23,79.38-17.99,129.02c.96,38.4-27.21,87.56-40.02,107.86-3.73,5.91-10.35,9.33-17.32,8.93-31.06-1.76-117.31-9.72-132.52-44.2-18.61-42.19-143.66-49.02-155.59-49.02s-23.72-3.72-10.07-20.48,39.71-20.55,55.84-47.19,101.76-63.03,101.76-63.03l73.84-45.01,142.09,23.12Z" fill="#a61f23"/>
    <path d="M34.91,480.34s1.63-15.45,23.09-34.94c18.12-16.46,23.32-16.14,23.32-16.14" fill="#d0c037"/>
    <path d="M305.78,162.06s26.98-15.14,70.76-10.55,53.88,11.71,53.88,11.71l-10.32,12.81-111.65-5.91-2.68-8.06Z" fill="#a61f23"/>
    <g>
      <path d="M491.95,90.39l31.22,19.85-106.74,128.57s-41.55,58.62-91.06,85.83c0,0-10.13,2.32-14.19,17.37-4.05,15.06-15.92,67.49-100.1,94.34,0,0-62.77,119.74-84.54,10.52,0,0-24.26,8.33-37.32,9.78,0,0-7.91-14.71-7.91-27.41,0,0,56.34-62.8,69.77-67.16,0,0,18.64-74.5,71.25-86.84,0,0,6.8-18.4,17.84-32.31s32.1-29.93,32.1-29.93l-49.94,31.73s-17.06,28.13-33.4,49.34l-31.77-10.4s18.1-54.42,35.73-70.59c23.73-21.76,68.21-59.62,117.61-57.91,0,0,20.01,2.6,37.12,5.1l60.08,2.15s28.05-16.42,50.89-40.23c19.66-20.5,33.37-31.83,33.37-31.83Z" fill="#e82f2d"/>
      <g clip-path="url(#clippath)">
        <path d="M187.87,223.81c7.4-9.59,16.44-17.82,25.94-25.34,24.44-19.33,52.3-34.27,81.81-44.31-17.7-.11-35.16,4.96-51.08,12.71-15.91,7.76-30.4,18.14-44.27,29.13-7.96,6.31-15.83,12.9-21.98,20.99-6.79,8.92-11.26,19.34-15.66,29.65-2.87,6.71-5.74,13.45-7.64,20.5-.74,2.73-1.31,5.71-.27,8.34.65,1.65,3.33,4.45,5.4,3.54,1.52-.67,2.04-4.24,2.57-5.65,2.23-5.84,4.52-11.67,7-17.4,4.9-11.31,10.61-22.36,18.17-32.15Z" fill="#d0c037"/>
        <path d="M159.29,339.44c9.73-26.34,30.65-47.4,54.55-62.16,1.98-1.23,4.3-3.37,3.21-5.44-1.02-1.94-24.5,18.26-26.55,19.06-23.35,9.2-22.64,7.15-34.5,29.27-8.43,15.71-7.02,25.4-6.94,43.21.01,2.92-3.17,32.54-2.14,29.28,1.1-3.46,2.94-14.6,3.36-18.01,1.34-10.86,5.21-24.93,9.01-35.22Z" fill="#d0c037"/>
        <path d="M423.93,154.73c22.39-15.41,42.26-34.45,58.61-56.16-5.8,2.58-10.87,6.52-15.74,10.59-10.16,8.49-19.7,17.7-29.22,26.9-5.01,4.84-10.02,9.67-15.03,14.51-.82.79-7.14,5.96-6.69,6.92.88,1.86,7.23-2.18,8.07-2.75Z" fill="#d0c037"/>
      </g>
    </g>
    <ellipse cx="344.49" cy="257.52" rx="32.63" ry="14.37" transform="translate(-81.19 319.01) rotate(-45)" fill="#d0c037"/>
    <path d="M228.48,261.33s23.93,63.08,87.69,70.13l-4.37,8.55s-56.76,5.5-89.46-64.75l6.15-13.93Z" fill="#d0c037"/>
    <ellipse cx="357.36" cy="202.38" rx="15.94" ry="5.8" transform="translate(-48.36 266.01) rotate(-38.44)" fill="#84161d"/>
    <ellipse cx="384.07" cy="203.87" rx="5.8" ry="14.82" transform="translate(-50.14 180.78) rotate(-24.92)" fill="#84161d"/>
    <path d="M95.28,433.02s-2.84-20.81,23.28-47.16c26.68-26.92,30.51-22.47,30.51-22.47l-53.79,69.63Z" fill="#d0c037"/>
    <path d="M129.66,424.42s16.15-46.6,19.4-61.02c0,0-48.06,29.34-53.53,66.97-2.52,17.37,12.07,17.15,22.75,10.21,5.5-3.58,10.52-13.02,11.37-16.15Z" fill="#771315"/>
    <path d="M89.22,456.67s-22.84,35.49-47.09,32.86,16.34-47.09,39.18-60.27l7.91,27.41Z" fill="#771315"/>
    <path d="M490.16,85.73s2.82-7.25,10.27-3.71c6.95,3.3,19.45,11.38,27.67,16.44,1.96,1.21,3.38,3.92.21,9.15-3.18,5.23-4.48,6.46-10.11,3.65-5.17-2.58-27.58-17.39-27.58-17.39,0,0-4.69-2.82-.47-8.14Z" fill="#d0c037"/>
    <path d="M500.25,89.09s-10.61-30.8,2.72-32.34c3.54-.41,5.57,1.47,5.57,1.47,0,0,10.67-17.08,21-14.61,2.58.62,4.27,2.54,4.74,4.98,6.26-1.65,11.32,5.57,9.76,8.14,3.51.04,10.47,4.77,5.17,12.22,0,0,6.42,8.38-.56,14.78-5.81,5.33-7.3,7.27-21.41,12.34-2,.72-4.07,3.55-5.85,4.72-2.49,1.65-3.66,1.5-12.67-3.75-5.7-3.33-8.48-7.95-8.48-7.95Z" fill="#d3932a"/>
    <g>
      <polygon points="359.06 143.97 347.62 160.3 371.73 192.35 407.81 174.33 407.81 143.97 359.06 143.97" fill="#d3932a"/>
      <g clip-path="url(#clippath-1)">
        <path d="M359.47,147.73s6.04,17.41,29.68,17.84c0,0-.79,4.86-5.21,8.53-5.4,4.48-17.12,18.62-17.12,18.62l22.3.52,20.86-17.19-1.71-29.91-55.61-1.57,6.8,3.16Z" fill="#8e6728"/>
      </g>
    </g>
    <path d="M414.91,157.74s5.25,7.65,3.49,16.49c-1.99,9.97-12.03,21.28-32.22,21.51-38.09.44-63.49-11.37-57.22-38.06l8.48-.95,10.18,3.58s9.41,8.93,12.19,12.24c3.32,3.94,11.93,16.8,11.93,16.8l4.96.68s7.32-5.64,17.15-11.26c5.81-3.32,13.97-6.28,13.97-6.28v-11.36l7.1-3.39Z" fill="#a61f23"/>
    <ellipse cx="372.98" cy="192.35" rx="4.78" ry="12.21" transform="translate(149.63 547.63) rotate(-85.13)" fill="#680f19"/>
    <path d="M385.96,47.1c-31.23-.02-53.72,27.37-48.32,68.61,3.19,24.34,20.11,38.38,26.45,41.09,15.26,6.5,31.64,3.21,42.05-2.96,8.12-4.81,19.82-23.61,22.92-40.61,8.46-46.38-19.5-66.11-43.11-66.13Z" fill="#d3932a"/>
    <path d="M380.98,111.87l-4.33,10.69c-.92,2.26.79,4.71,3.29,4.71h9.52c2.25,0,3.93-2.02,3.45-4.17l-2.45-11.08c-.39-1.77-2.13-2.95-3.97-2.68l-2.75.39c-1.25.18-2.31,1-2.77,2.14Z" fill="#8e6728"/>
    <g>
      <path d="M344.67,93.5c8.32-11.31,33.83-.55,40.81-.78s19.52-4.1,28.73-3.22,17.46,8.33,10.54,22.95c-7.66,16.19-27.07,1.34-38.05,1.12s-18.63,7.32-31.5,6.54-18.85-15.31-10.54-26.62Z" fill="#1d4443"/>
      <ellipse cx="362.34" cy="104.24" rx="11.63" ry="6.79" fill="#f6fbfc"/>
      <ellipse cx="406.78" cy="104.24" rx="11.63" ry="6.79" fill="#f6fbfc"/>
    </g>
    <path d="M369.81,136.15s2.47,4.03,8.3,3.13" fill="none" stroke="#8e6728" stroke-linecap="round" stroke-miterlimit="10" stroke-width="2.5"/>
    <path d="M369.81,86.52s-3.81-5-11.39-3.02" fill="none" stroke="#8e6728" stroke-linecap="round" stroke-miterlimit="10" stroke-width="2.5"/>
    <path d="M412.44,83.39s-5.83-2.34-11.32,3.25" fill="none" stroke="#8e6728" stroke-linecap="round" stroke-miterlimit="10" stroke-width="2.5"/>
    <path d="M211.08,436.36s23.18-38.56,27.62-69.82c.43-3.05.69-6.03.73-8.9" fill="none" stroke="#a61f23" stroke-linecap="round" stroke-miterlimit="10" stroke-width="2"/>
    <path d="M250.2,361.82s-4.97,3.22-11.49,4.72" fill="none" stroke="#a61f23" stroke-linecap="round" stroke-miterlimit="10" stroke-width="2"/>
    <path d="M147.75,429.2s-2.77-48.2,3-70.31" fill="none" stroke="#a61f23" stroke-linecap="round" stroke-miterlimit="10" stroke-width="2"/>
    <path d="M126,447.06s-2.19-10.88.69-25.29" fill="none" stroke="#771315" stroke-miterlimit="10" stroke-width="2"/>
    <path d="M194.59,293.72c-1.73,4.39-1.45,7.97-8.29,6.31-6.37-1.55-22.1-8.44-29.82-11.22-1.84-.66-3.31-2.28-1.76-6.17,1.93-4.85,2.81-6.11,7.99-4.74,4.76,1.26,20.02,6.56,27.2,8.62,2.06.59,7.12,1,4.67,7.2Z" fill="#d0c037"/>
    <path d="M184.38,290.76s-1.3,3.27.17,6.19c4.42,8.79,14.43,25.46,4.46,28.97-3.53,1.24-6.04-.21-6.04-.21,0,0-6.94,19.96-18.08,19.84-2.78-.03-3.51-3.19-6.01-3.99-6.02,3.14-12.98-3.94-12.47-4.96,0,0-11.23-3.54-7.55-12.39,0,0-7.47-6.3-1.82-14.48,4.7-6.8,6.82-9.92,20.07-18.39,1.88-1.2,4.33-7.8,4.33-7.8,0,0,1.85-.78,12.29,2.5,6.61,2.07,10.64,4.72,10.64,4.72Z" fill="#d3932a"/>
    <path d="M523.44,75.45s-1.25,2,1.56,4.39,4.05,1.76,6.48.73c0,0-.76,1.36,1.53,3.77,2.54,2.67,9.41.58,9.41.58,0,0-14.47,8.53-20.26,4.27s-6.65-7.5-9.18-2.4c0,0,.74-7.43-5.55-12.07-.71-.52-3.1-1.98-2.34-4.29,1.35,3.03,12.25,10.58,18.35,5.01Z" fill="#8d6829"/>
  </g>
  <path d="M531.08,53.2s-9.86,10.46-11.28,11.62c0,0,10.26-8.26,11.28-11.62Z" fill="#8d6829"/>
  <path d="M509.11,59s10.06,8.44,11.17,9.65c0,0-7.95-8.77-11.17-9.65Z" fill="#8d6829"/>
  <path d="M538.21,60.21s-9.86,10.46-11.28,11.62c0,0,10.26-8.26,11.28-11.62Z" fill="#8d6829"/>
  <path d="M546.11,69.63s-11.54,8.57-13.14,9.47c0,0,11.55-6.34,13.14-9.47Z" fill="#8d6829"/>
</svg>