<svg width="962" height="905" viewBox="0 0 962 905" fill="none" xmlns="http://www.w3.org/2000/svg">
<path d="M575.412 193.688L490.376 11.2706C486.787 3.57071 475.838 3.57073 472.249 11.2706L387.213 193.688L197.937 90.5633C190.217 86.3572 181.217 93.4435 183.494 101.935L234.533 292.257L15.2022 307.844C6.00996 308.497 2.51913 320.181 9.84649 325.77L175.942 452.453L9.84649 579.137C2.5191 584.725 6.01001 596.41 15.2022 597.063L234.533 612.649L183.494 802.971C181.217 811.463 190.217 818.549 197.937 814.343L387.213 711.218L472.249 893.636C475.838 901.336 486.787 901.336 490.376 893.636L575.412 711.218L764.688 814.343C772.408 818.549 781.408 811.463 779.131 802.971L728.091 612.649L947.423 597.063C956.615 596.41 960.106 584.725 952.779 579.137L786.683 452.453L952.779 325.77C960.106 320.181 956.615 308.497 947.423 307.844L728.091 292.257L779.131 101.935C781.408 93.4434 772.408 86.3572 764.688 90.5633L575.412 193.688Z" fill="#C31E1C" stroke="#FFE712" stroke-width="10"/>
</svg>
