<svg width="1689" height="751" viewBox="0 0 1689 751" fill="none" xmlns="http://www.w3.org/2000/svg">
<g clip-path="url(#clip0_131_2)">
<rect width="1689" height="750" transform="translate(0 0.979492)" fill="#AFDADE"/>
<path fill-rule="evenodd" clip-rule="evenodd" d="M1668.92 446.474H1230.92C1230.92 417.564 1256.37 393.669 1289.41 389.863C1292.56 349.138 1321.57 317.24 1356.88 317.24C1373.14 317.24 1388.06 324.001 1399.73 335.273C1411.41 324.001 1426.33 317.24 1442.59 317.24C1462.92 317.24 1481.16 327.816 1493.58 344.563C1505.94 327.745 1523.51 317.24 1542.99 317.24C1575.39 317.24 1602.47 346.279 1609.16 385.088C1610.04 385.046 1610.93 385.025 1611.82 385.025C1643.37 385.025 1668.95 411.572 1668.95 444.319C1668.95 445.04 1668.94 445.759 1668.92 446.474Z" fill="#F8F8F8"/>
<path fill-rule="evenodd" clip-rule="evenodd" d="M1190.88 196.981H752.879C752.879 180.437 778.335 166.763 811.374 164.585C814.526 141.28 843.528 123.025 878.841 123.025C895.1 123.025 910.02 126.895 921.696 133.345C933.372 126.895 948.293 123.025 964.551 123.025C984.885 123.025 1003.13 129.078 1015.54 138.662C1027.9 129.037 1045.47 123.025 1064.95 123.025C1097.35 123.025 1124.44 139.644 1131.12 161.852C1132.01 161.828 1132.89 161.816 1133.78 161.816C1165.34 161.816 1190.92 177.008 1190.92 195.748C1190.92 196.161 1190.9 196.572 1190.88 196.981Z" fill="#F8F8F8"/>
<path fill-rule="evenodd" clip-rule="evenodd" d="M556.86 679.092H118.859C118.859 662.549 144.315 648.874 177.354 646.696C180.506 623.391 209.509 605.137 244.822 605.137C261.08 605.137 276.001 609.006 287.677 615.456C299.353 609.006 314.273 605.137 330.532 605.137C350.865 605.137 369.106 611.189 381.525 620.773C393.885 611.149 411.449 605.137 430.935 605.137C463.332 605.137 490.418 621.755 497.104 643.964C497.986 643.94 498.872 643.928 499.764 643.928C531.318 643.928 556.897 659.119 556.897 677.859C556.897 678.272 556.885 678.683 556.86 679.092Z" fill="#F8F8F8"/>
<path fill-rule="evenodd" clip-rule="evenodd" d="M1095.33 504.979H657.328C657.328 488.436 682.784 474.762 715.823 472.583C718.975 449.278 747.978 431.024 783.291 431.024C799.549 431.024 814.469 434.893 826.146 441.344C837.822 434.893 852.742 431.024 869 431.024C889.334 431.024 907.575 437.076 919.994 446.66C932.354 437.036 949.918 431.024 969.404 431.024C1001.8 431.024 1028.89 447.642 1035.57 469.851C1036.45 469.827 1037.34 469.815 1038.23 469.815C1069.79 469.815 1095.37 485.007 1095.37 503.747C1095.37 504.159 1095.35 504.57 1095.33 504.979Z" fill="#F8F8F8"/>
<path fill-rule="evenodd" clip-rule="evenodd" d="M458.047 215.883H20.0459C20.0459 199.34 45.5019 185.665 78.5408 183.487C81.6925 160.182 110.695 141.928 146.008 141.928C162.267 141.928 177.187 145.797 188.863 152.247C200.539 145.797 215.46 141.928 231.718 141.928C252.052 141.928 270.293 147.98 282.712 157.564C295.071 147.94 312.636 141.928 332.122 141.928C364.518 141.928 391.604 158.546 398.291 180.755C399.172 180.731 400.059 180.719 400.951 180.719C432.504 180.719 458.084 195.91 458.084 214.65C458.084 215.063 458.071 215.474 458.047 215.883Z" fill="#F8F8F8"/>
<path fill-rule="evenodd" clip-rule="evenodd" d="M1547 693.336H1109C1109 676.792 1134.46 663.118 1167.5 660.94C1170.65 637.635 1199.65 619.38 1234.97 619.38C1251.22 619.38 1266.15 623.25 1277.82 629.7C1289.5 623.25 1304.42 619.38 1320.68 619.38C1341.01 619.38 1359.25 625.433 1371.67 635.017C1384.03 625.392 1401.59 619.38 1421.08 619.38C1453.48 619.38 1480.56 635.999 1487.25 658.207C1488.13 658.183 1489.02 658.171 1489.91 658.171C1521.46 658.171 1547.04 673.363 1547.04 692.103C1547.04 692.516 1547.03 692.927 1547 693.336Z" fill="#F8F8F8"/>
</g>
<defs>
<clipPath id="clip0_131_2">
<rect width="1689" height="750" fill="white" transform="translate(0 0.979492)"/>
</clipPath>
</defs>
</svg>
