<svg width="2400" height="701" viewBox="0 0 2400 701" fill="none" xmlns="http://www.w3.org/2000/svg">
<g clip-path="url(#clip0_131_2)">
<rect width="2400" height="700" transform="translate(0 0.979492)" fill="#AFDADE"/>
<path fill-rule="evenodd" clip-rule="evenodd" d="M1638 352.452H1200C1200 352.452 1200 352.452 1200 352.452C1200 327.385 1225.46 306.666 1258.49 303.366C1261.65 268.054 1290.65 240.396 1325.96 240.396C1342.22 240.396 1357.14 246.258 1368.82 256.032C1380.49 246.258 1395.41 240.396 1411.67 240.396C1432.01 240.396 1450.25 249.566 1462.67 264.087C1475.03 249.505 1492.59 240.396 1512.08 240.396C1544.47 240.396 1571.56 265.575 1578.24 299.226C1579.13 299.19 1580.01 299.171 1580.9 299.171C1612.46 299.171 1638.04 322.19 1638.04 350.584C1638.04 351.21 1638.03 351.832 1638 352.452Z" fill="#F8F8F8"/>
<path fill-rule="evenodd" clip-rule="evenodd" d="M1188.71 120.137H750.706C750.706 103.593 776.162 89.9189 809.201 87.7404C812.353 64.4354 841.356 46.1812 876.668 46.1812C892.927 46.1812 907.847 50.0506 919.523 56.5008C931.199 50.0506 946.12 46.1812 962.378 46.1812C982.712 46.1812 1000.95 52.2334 1013.37 61.8173C1025.73 52.193 1043.3 46.1812 1062.78 46.1812C1095.18 46.1812 1122.26 62.7994 1128.95 85.0082C1129.83 84.9842 1130.72 84.972 1131.61 84.972C1163.16 84.972 1188.74 100.164 1188.74 118.904C1188.74 119.316 1188.73 119.727 1188.71 120.137Z" fill="#F8F8F8"/>
<path fill-rule="evenodd" clip-rule="evenodd" d="M554.688 602.248H116.687C116.687 585.704 142.143 572.03 175.181 569.852C178.333 546.547 207.336 528.292 242.649 528.292C258.907 528.292 273.828 532.162 285.504 538.612C297.18 532.162 312.101 528.292 328.359 528.292C348.692 528.292 366.934 534.345 379.352 543.929C391.712 534.304 409.277 528.292 428.762 528.292C461.159 528.292 488.245 544.911 494.931 567.12C495.813 567.096 496.7 567.083 497.591 567.083C529.145 567.083 554.725 582.275 554.725 601.015C554.725 601.428 554.712 601.839 554.688 602.248Z" fill="#F8F8F8"/>
<path fill-rule="evenodd" clip-rule="evenodd" d="M2157.46 602.248H1719.46C1719.46 585.704 1744.91 572.03 1777.95 569.852C1781.11 546.547 1810.11 528.292 1845.42 528.292C1861.68 528.292 1876.6 532.162 1888.28 538.612C1899.95 532.162 1914.87 528.292 1931.13 528.292C1951.46 528.292 1969.71 534.345 1982.12 543.929C1994.48 534.304 2012.05 528.292 2031.53 528.292C2063.93 528.292 2091.02 544.911 2097.7 567.12C2098.59 567.096 2099.47 567.083 2100.36 567.083C2131.92 567.083 2157.5 582.275 2157.5 601.015C2157.5 601.428 2157.48 601.839 2157.46 602.248Z" fill="#F8F8F8"/>
<path fill-rule="evenodd" clip-rule="evenodd" d="M927.597 426.408H489.596C489.596 409.864 515.052 396.19 548.091 394.011C551.242 370.706 580.245 352.452 615.558 352.452C631.816 352.452 646.737 356.322 658.413 362.772C670.089 356.322 685.01 352.452 701.268 352.452C721.601 352.452 739.843 358.504 752.261 368.088C764.621 358.464 782.186 352.452 801.671 352.452C834.068 352.452 861.154 369.07 867.84 391.279C868.722 391.255 869.609 391.243 870.5 391.243C902.054 391.243 927.634 406.435 927.634 425.175C927.634 425.587 927.621 425.998 927.597 426.408Z" fill="#F8F8F8"/>
<path fill-rule="evenodd" clip-rule="evenodd" d="M2376.48 426.408H1938.48C1938.48 409.864 1963.93 396.19 1996.97 394.011C2000.12 370.706 2029.13 352.452 2064.44 352.452C2080.7 352.452 2095.62 356.322 2107.29 362.772C2118.97 356.322 2133.89 352.452 2150.15 352.452C2170.48 352.452 2188.72 358.504 2201.14 368.088C2213.5 358.464 2231.07 352.452 2250.55 352.452C2282.95 352.452 2310.04 369.07 2316.72 391.279C2317.6 391.255 2318.49 391.243 2319.38 391.243C2350.94 391.243 2376.51 406.435 2376.51 425.175C2376.51 425.587 2376.5 425.998 2376.48 426.408Z" fill="#F8F8F8"/>
<path fill-rule="evenodd" clip-rule="evenodd" d="M461.486 176.017H23.4854C23.4854 159.473 48.9414 145.799 81.9802 143.621C85.132 120.316 114.135 102.061 149.448 102.061C165.706 102.061 180.627 105.931 192.303 112.381C203.979 105.931 218.899 102.061 235.158 102.061C255.491 102.061 273.732 108.114 286.151 117.697C298.511 108.073 316.075 102.061 335.561 102.061C367.958 102.061 395.044 118.68 401.73 140.888C402.612 140.864 403.498 140.852 404.39 140.852C435.944 140.852 461.523 156.044 461.523 174.784C461.523 175.197 461.511 175.608 461.486 176.017Z" fill="#F8F8F8"/>
<path fill-rule="evenodd" clip-rule="evenodd" d="M2058.65 139.039H1620.64C1620.64 122.495 1646.1 108.821 1679.14 106.643C1682.29 83.3378 1711.29 65.0835 1746.61 65.0835C1762.87 65.0835 1777.79 68.9529 1789.46 75.4032C1801.14 68.9529 1816.06 65.0835 1832.32 65.0835C1852.65 65.0835 1870.89 71.1358 1883.31 80.7196C1895.67 71.0954 1913.23 65.0835 1932.72 65.0835C1965.12 65.0835 1992.2 81.7017 1998.89 103.911C1999.77 103.887 2000.66 103.874 2001.55 103.874C2033.1 103.874 2058.68 119.066 2058.68 137.806C2058.68 138.219 2058.67 138.63 2058.65 139.039Z" fill="#F8F8F8"/>
<path fill-rule="evenodd" clip-rule="evenodd" d="M1542.02 676.204H1104.02C1104.02 659.66 1129.48 645.986 1162.52 643.807C1165.67 620.502 1194.67 602.248 1229.99 602.248C1246.24 602.248 1261.16 606.117 1272.84 612.568C1284.52 606.117 1299.44 602.248 1315.7 602.248C1336.03 602.248 1354.27 608.3 1366.69 617.884C1379.05 608.26 1396.61 602.248 1416.1 602.248C1448.5 602.248 1475.58 618.866 1482.27 641.075C1483.15 641.051 1484.04 641.039 1484.93 641.039C1516.48 641.039 1542.06 656.231 1542.06 674.971C1542.06 675.383 1542.05 675.794 1542.02 676.204Z" fill="#F8F8F8"/>
</g>
<defs>
<clipPath id="clip0_131_2">
<rect width="2400" height="700" fill="white" transform="translate(0 0.979492)"/>
</clipPath>
</defs>
</svg>
