<svg width="2400" height="751" viewBox="0 0 2400 751" fill="none" xmlns="http://www.w3.org/2000/svg">
<g clip-path="url(#clip0_131_2)">
<rect width="2400" height="750" transform="translate(0 0.979492)" fill="#AFDADE"/>
<path fill-rule="evenodd" clip-rule="evenodd" d="M1298.22 134.924H860.215C860.215 118.38 885.671 104.706 918.71 102.528C921.861 79.2226 950.864 60.9683 986.177 60.9683C1002.44 60.9683 1017.36 64.8377 1029.03 71.2879C1040.71 64.8377 1055.63 60.9683 1071.89 60.9683C1092.22 60.9683 1110.46 67.0205 1122.88 76.6044C1135.24 66.9801 1152.8 60.9683 1172.29 60.9683C1204.69 60.9683 1231.77 77.5865 1238.46 99.7953C1239.34 99.7713 1240.23 99.7592 1241.12 99.7592C1272.67 99.7592 1298.25 114.951 1298.25 133.691C1298.25 134.104 1298.24 134.515 1298.22 134.924Z" fill="#F8F8F8"/>
<path fill-rule="evenodd" clip-rule="evenodd" d="M664.196 617.035H226.195C226.195 600.491 251.651 586.817 284.69 584.639C287.842 561.334 316.845 543.08 352.158 543.08C368.416 543.08 383.337 546.949 395.013 553.399C406.689 546.949 421.609 543.08 437.868 543.08C458.201 543.08 476.442 549.132 488.861 558.716C501.221 549.091 518.785 543.08 538.271 543.08C570.668 543.08 597.754 559.698 604.44 581.907C605.322 581.883 606.208 581.87 607.1 581.87C638.654 581.87 664.233 597.062 664.233 615.802C664.233 616.215 664.221 616.626 664.196 617.035Z" fill="#F8F8F8"/>
<path fill-rule="evenodd" clip-rule="evenodd" d="M2266.97 617.035H1828.97C1828.97 600.491 1854.42 586.817 1887.46 584.639C1890.61 561.334 1919.62 543.08 1954.93 543.08C1971.19 543.08 1986.11 546.949 1997.79 553.399C2009.46 546.949 2024.38 543.08 2040.64 543.08C2060.97 543.08 2079.21 549.132 2091.63 558.716C2103.99 549.091 2121.56 543.08 2141.04 543.08C2173.44 543.08 2200.53 559.698 2207.21 581.907C2208.09 581.883 2208.98 581.87 2209.87 581.87C2241.43 581.87 2267.01 597.062 2267.01 615.802C2267.01 616.215 2266.99 616.626 2266.97 617.035Z" fill="#F8F8F8"/>
<path fill-rule="evenodd" clip-rule="evenodd" d="M1064.89 385.431H626.894C626.894 368.887 652.35 355.213 685.388 353.034C688.54 329.729 717.543 311.475 752.856 311.475C769.114 311.475 784.035 315.345 795.711 321.795C807.387 315.345 822.308 311.475 838.566 311.475C858.899 311.475 877.141 317.527 889.559 327.111C901.919 317.487 919.484 311.475 938.969 311.475C971.366 311.475 998.452 328.093 1005.14 350.302C1006.02 350.278 1006.91 350.266 1007.8 350.266C1039.35 350.266 1064.93 365.458 1064.93 384.198C1064.93 384.61 1064.92 385.021 1064.89 385.431Z" fill="#F8F8F8"/>
<path fill-rule="evenodd" clip-rule="evenodd" d="M1898.34 385.431H1460.34C1460.34 368.887 1485.8 355.213 1518.84 353.034C1521.99 329.729 1550.99 311.475 1586.3 311.475C1602.56 311.475 1617.48 315.345 1629.16 321.795C1640.83 315.345 1655.75 311.475 1672.01 311.475C1692.35 311.475 1710.59 317.527 1723.01 327.111C1735.37 317.487 1752.93 311.475 1772.42 311.475C1804.81 311.475 1831.9 328.093 1838.59 350.302C1839.47 350.278 1840.35 350.266 1841.25 350.266C1872.8 350.266 1898.38 365.458 1898.38 384.198C1898.38 384.61 1898.37 385.021 1898.34 385.431Z" fill="#F8F8F8"/>
<path fill-rule="evenodd" clip-rule="evenodd" d="M570.995 190.804H132.994C132.994 174.26 158.45 160.586 191.489 158.408C194.641 135.103 223.644 116.848 258.957 116.848C275.215 116.848 290.135 120.718 301.812 127.168C313.488 120.718 328.408 116.848 344.667 116.848C365 116.848 383.241 122.901 395.66 132.485C408.02 122.86 425.584 116.848 445.07 116.848C477.467 116.848 504.553 133.467 511.239 155.675C512.12 155.651 513.007 155.639 513.899 155.639C545.453 155.639 571.032 170.831 571.032 189.571C571.032 189.984 571.02 190.395 570.995 190.804Z" fill="#F8F8F8"/>
<path fill-rule="evenodd" clip-rule="evenodd" d="M2168.15 153.826H1730.15C1730.15 137.282 1755.61 123.608 1788.65 121.43C1791.8 98.1249 1820.8 79.8706 1856.12 79.8706C1872.37 79.8706 1887.29 83.74 1898.97 90.1903C1910.65 83.74 1925.57 79.8706 1941.83 79.8706C1962.16 79.8706 1980.4 85.9229 1992.82 95.5067C2005.18 85.8825 2022.74 79.8706 2042.23 79.8706C2074.63 79.8706 2101.71 96.4888 2108.4 118.698C2109.28 118.674 2110.17 118.662 2111.06 118.662C2142.61 118.662 2168.19 133.853 2168.19 152.593C2168.19 153.006 2168.18 153.417 2168.15 153.826Z" fill="#F8F8F8"/>
<path fill-rule="evenodd" clip-rule="evenodd" d="M1651.53 690.991H1213.53C1213.53 674.447 1238.99 660.773 1272.03 658.594C1275.18 635.289 1304.18 617.035 1339.49 617.035C1355.75 617.035 1370.67 620.905 1382.35 627.355C1394.03 620.905 1408.95 617.035 1425.2 617.035C1445.54 617.035 1463.78 623.087 1476.2 632.671C1488.56 623.047 1506.12 617.035 1525.61 617.035C1558 617.035 1585.09 633.653 1591.78 655.862C1592.66 655.838 1593.55 655.826 1594.44 655.826C1625.99 655.826 1651.57 671.018 1651.57 689.758C1651.57 690.17 1651.56 690.581 1651.53 690.991Z" fill="#F8F8F8"/>
</g>
<defs>
<clipPath id="clip0_131_2">
<rect width="2400" height="750" fill="white" transform="translate(0 0.979492)"/>
</clipPath>
</defs>
</svg>
