<svg width="7067" height="700" viewBox="0 0 7067 700" fill="none" xmlns="http://www.w3.org/2000/svg">
<g clip-path="url(#clip0_131_2)">
<rect width="7067" height="700" fill="#AFDADE"/>
<path fill-rule="evenodd" clip-rule="evenodd" d="M1418.98 482.609H980.98C980.98 453.7 1006.44 429.805 1039.48 425.998C1042.63 385.274 1071.63 353.375 1106.94 353.375C1123.2 353.375 1138.12 360.137 1149.8 371.409C1161.47 360.137 1176.39 353.375 1192.65 353.375C1212.99 353.375 1231.23 363.952 1243.65 380.699C1256.01 363.881 1273.57 353.375 1293.06 353.375C1325.45 353.375 1352.54 382.415 1359.23 421.224C1360.11 421.182 1360.99 421.161 1361.89 421.161C1393.44 421.161 1419.02 447.708 1419.02 480.455C1419.02 481.176 1419.01 481.894 1418.98 482.609Z" fill="#F8F8F8"/>
<path fill-rule="evenodd" clip-rule="evenodd" d="M4594.89 482.609H4156.89C4156.89 453.7 4182.34 429.805 4215.38 425.998C4218.53 385.274 4247.54 353.375 4282.85 353.375C4299.11 353.375 4314.03 360.137 4325.7 371.409C4337.38 360.137 4352.3 353.375 4368.56 353.375C4388.89 353.375 4407.13 363.952 4419.55 380.699C4431.91 363.881 4449.48 353.375 4468.96 353.375C4501.36 353.375 4528.45 382.415 4535.13 421.224C4536.01 421.182 4536.9 421.161 4537.79 421.161C4569.35 421.161 4594.92 447.708 4594.92 480.455C4594.92 481.176 4594.91 481.894 4594.89 482.609Z" fill="#F8F8F8"/>
<path fill-rule="evenodd" clip-rule="evenodd" d="M3067.89 482.609H2629.89C2629.89 453.7 2655.35 429.805 2688.38 425.998C2691.54 385.274 2720.54 353.375 2755.85 353.375C2772.11 353.375 2787.03 360.137 2798.71 371.409C2810.38 360.137 2825.3 353.375 2841.56 353.375C2861.9 353.375 2880.14 363.952 2892.56 380.699C2904.92 363.881 2922.48 353.375 2941.97 353.375C2974.36 353.375 3001.45 382.415 3008.13 421.224C3009.02 421.182 3009.9 421.161 3010.79 421.161C3042.35 421.161 3067.93 447.708 3067.93 480.455C3067.93 481.176 3067.92 481.894 3067.89 482.609Z" fill="#F8F8F8"/>
<path fill-rule="evenodd" clip-rule="evenodd" d="M6243.8 482.609H5805.8C5805.8 453.7 5831.25 429.805 5864.29 425.998C5867.44 385.274 5896.45 353.375 5931.76 353.375C5948.02 353.375 5962.94 360.137 5974.61 371.409C5986.29 360.137 6001.21 353.375 6017.47 353.375C6037.8 353.375 6056.04 363.952 6068.46 380.699C6080.82 363.881 6098.39 353.375 6117.87 353.375C6150.27 353.375 6177.35 382.415 6184.04 421.224C6184.92 421.182 6185.81 421.161 6186.7 421.161C6218.25 421.161 6243.83 447.708 6243.83 480.455C6243.83 481.176 6243.82 481.894 6243.8 482.609Z" fill="#F8F8F8"/>
<path fill-rule="evenodd" clip-rule="evenodd" d="M940.943 233.117H502.942C502.942 216.573 528.398 202.899 561.437 200.72C564.589 177.415 593.592 159.161 628.905 159.161C645.163 159.161 660.084 163.031 671.76 169.481C683.436 163.031 698.357 159.161 714.615 159.161C734.948 159.161 753.189 165.213 765.608 174.797C777.968 165.173 795.532 159.161 815.018 159.161C847.415 159.161 874.501 175.779 881.187 197.988C882.069 197.964 882.955 197.952 883.847 197.952C915.401 197.952 940.98 213.144 940.98 231.884C940.98 232.296 940.968 232.707 940.943 233.117Z" fill="#F8F8F8"/>
<path fill-rule="evenodd" clip-rule="evenodd" d="M4116.85 233.117H3678.85C3678.85 216.573 3704.3 202.899 3737.34 200.72C3740.5 177.415 3769.5 159.161 3804.81 159.161C3821.07 159.161 3835.99 163.031 3847.67 169.481C3859.34 163.031 3874.26 159.161 3890.52 159.161C3910.85 159.161 3929.1 165.213 3941.51 174.797C3953.87 165.173 3971.44 159.161 3990.92 159.161C4023.32 159.161 4050.41 175.779 4057.09 197.988C4057.97 197.964 4058.86 197.952 4059.75 197.952C4091.31 197.952 4116.89 213.144 4116.89 231.884C4116.89 232.296 4116.87 232.707 4116.85 233.117Z" fill="#F8F8F8"/>
<path fill-rule="evenodd" clip-rule="evenodd" d="M2589.85 233.117H2151.85C2151.85 216.573 2177.31 202.899 2210.35 200.72C2213.5 177.415 2242.5 159.161 2277.81 159.161C2294.07 159.161 2308.99 163.031 2320.67 169.481C2332.35 163.031 2347.27 159.161 2363.52 159.161C2383.86 159.161 2402.1 165.213 2414.52 174.797C2426.88 165.173 2444.44 159.161 2463.93 159.161C2496.32 159.161 2523.41 175.779 2530.1 197.988C2530.98 197.964 2531.86 197.952 2532.76 197.952C2564.31 197.952 2589.89 213.144 2589.89 231.884C2589.89 232.296 2589.88 232.707 2589.85 233.117Z" fill="#F8F8F8"/>
<path fill-rule="evenodd" clip-rule="evenodd" d="M5765.76 233.117H5327.76C5327.76 216.573 5353.21 202.899 5386.25 200.72C5389.4 177.415 5418.41 159.161 5453.72 159.161C5469.98 159.161 5484.9 163.031 5496.58 169.481C5508.25 163.031 5523.17 159.161 5539.43 159.161C5559.76 159.161 5578 165.213 5590.42 174.797C5602.78 165.173 5620.35 159.161 5639.83 159.161C5672.23 159.161 5699.32 175.779 5706 197.988C5706.88 197.964 5707.77 197.952 5708.66 197.952C5740.22 197.952 5765.8 213.144 5765.8 231.884C5765.8 232.296 5765.78 232.707 5765.76 233.117Z" fill="#F8F8F8"/>
<path fill-rule="evenodd" clip-rule="evenodd" d="M306.923 715.228H-131.078C-131.078 698.685 -105.622 685.01 -72.5828 682.832C-69.431 659.527 -40.4281 641.273 -5.11523 641.273C11.143 641.273 26.0637 645.142 37.7397 651.592C49.4158 645.142 64.3365 641.273 80.5947 641.273C100.928 641.273 119.169 647.325 131.588 656.909C143.948 647.285 161.512 641.273 180.998 641.273C213.395 641.273 240.481 657.891 247.167 680.1C248.049 680.076 248.935 680.064 249.827 680.064C281.381 680.064 306.96 695.255 306.96 713.995C306.96 714.408 306.948 714.819 306.923 715.228Z" fill="#F8F8F8"/>
<path fill-rule="evenodd" clip-rule="evenodd" d="M3482.83 715.228H3044.83C3044.83 698.685 3070.28 685.01 3103.32 682.832C3106.47 659.527 3135.48 641.273 3170.79 641.273C3187.05 641.273 3201.97 645.142 3213.65 651.592C3225.32 645.142 3240.24 641.273 3256.5 641.273C3276.83 641.273 3295.08 647.325 3307.49 656.909C3319.85 647.285 3337.42 641.273 3356.9 641.273C3389.3 641.273 3416.39 657.891 3423.07 680.1C3423.95 680.076 3424.84 680.064 3425.73 680.064C3457.29 680.064 3482.87 695.255 3482.87 713.995C3482.87 714.408 3482.85 714.819 3482.83 715.228Z" fill="#F8F8F8"/>
<path fill-rule="evenodd" clip-rule="evenodd" d="M1955.83 715.228H1517.83C1517.83 698.685 1543.29 685.01 1576.33 682.832C1579.48 659.527 1608.48 641.273 1643.79 641.273C1660.05 641.273 1674.97 645.142 1686.65 651.592C1698.32 645.142 1713.25 641.273 1729.5 641.273C1749.84 641.273 1768.08 647.325 1780.5 656.909C1792.86 647.285 1810.42 641.273 1829.91 641.273C1862.3 641.273 1889.39 657.891 1896.08 680.1C1896.96 680.076 1897.84 680.064 1898.74 680.064C1930.29 680.064 1955.87 695.255 1955.87 713.995C1955.87 714.408 1955.86 714.819 1955.83 715.228Z" fill="#F8F8F8"/>
<path fill-rule="evenodd" clip-rule="evenodd" d="M5131.74 715.228H4693.74C4693.74 698.685 4719.19 685.01 4752.23 682.832C4755.38 659.527 4784.39 641.273 4819.7 641.273C4835.96 641.273 4850.88 645.142 4862.55 651.592C4874.23 645.142 4889.15 641.273 4905.41 641.273C4925.74 641.273 4943.98 647.325 4956.4 656.909C4968.76 647.285 4986.33 641.273 5005.81 641.273C5038.21 641.273 5065.3 657.891 5071.98 680.1C5072.86 680.076 5073.75 680.064 5074.64 680.064C5106.2 680.064 5131.78 695.255 5131.78 713.995C5131.78 714.408 5131.76 714.819 5131.74 715.228Z" fill="#F8F8F8"/>
<path fill-rule="evenodd" clip-rule="evenodd" d="M6881.08 715.228H6443.08C6443.08 698.685 6468.53 685.01 6501.57 682.832C6504.72 659.527 6533.73 641.273 6569.04 641.273C6585.3 641.273 6600.22 645.142 6611.9 651.592C6623.57 645.142 6638.49 641.273 6654.75 641.273C6675.08 641.273 6693.33 647.325 6705.74 656.909C6718.1 647.285 6735.67 641.273 6755.15 641.273C6787.55 641.273 6814.64 657.891 6821.32 680.1C6822.2 680.076 6823.09 680.064 6823.98 680.064C6855.54 680.064 6881.12 695.255 6881.12 713.995C6881.12 714.408 6881.1 714.819 6881.08 715.228Z" fill="#F8F8F8"/>
<path fill-rule="evenodd" clip-rule="evenodd" d="M845.393 541.115H407.392C407.392 524.572 432.848 510.897 465.886 508.719C469.038 485.414 498.041 467.16 533.354 467.16C549.612 467.16 564.533 471.029 576.209 477.479C587.885 471.029 602.806 467.16 619.064 467.16C639.397 467.16 657.639 473.212 670.057 482.796C682.417 473.172 699.982 467.16 719.467 467.16C751.864 467.16 778.95 483.778 785.636 505.987C786.518 505.963 787.405 505.951 788.296 505.951C819.85 505.951 845.43 521.142 845.43 539.882C845.43 540.295 845.417 540.706 845.393 541.115Z" fill="#F8F8F8"/>
<path fill-rule="evenodd" clip-rule="evenodd" d="M4021.3 541.115H3583.3C3583.3 524.572 3608.75 510.897 3641.79 508.719C3644.94 485.414 3673.95 467.16 3709.26 467.16C3725.52 467.16 3740.44 471.029 3752.12 477.479C3763.79 471.029 3778.71 467.16 3794.97 467.16C3815.3 467.16 3833.54 473.212 3845.96 482.796C3858.32 473.172 3875.89 467.16 3895.37 467.16C3927.77 467.16 3954.86 483.778 3961.54 505.987C3962.42 505.963 3963.31 505.951 3964.2 505.951C3995.76 505.951 4021.34 521.142 4021.34 539.882C4021.34 540.295 4021.32 540.706 4021.3 541.115Z" fill="#F8F8F8"/>
<path fill-rule="evenodd" clip-rule="evenodd" d="M2494.3 541.115H2056.3C2056.3 524.572 2081.76 510.897 2114.8 508.719C2117.95 485.414 2146.95 467.16 2182.26 467.16C2198.52 467.16 2213.44 471.029 2225.12 477.479C2236.79 471.029 2251.71 467.16 2267.97 467.16C2288.31 467.16 2306.55 473.212 2318.97 482.796C2331.33 473.172 2348.89 467.16 2368.38 467.16C2400.77 467.16 2427.86 483.778 2434.55 505.987C2435.43 505.963 2436.31 505.951 2437.21 505.951C2468.76 505.951 2494.34 521.142 2494.34 539.882C2494.34 540.295 2494.33 540.706 2494.3 541.115Z" fill="#F8F8F8"/>
<path fill-rule="evenodd" clip-rule="evenodd" d="M5670.21 541.115H5232.21C5232.21 524.572 5257.66 510.897 5290.7 508.719C5293.85 485.414 5322.86 467.16 5358.17 467.16C5374.43 467.16 5389.35 471.029 5401.02 477.479C5412.7 471.029 5427.62 467.16 5443.88 467.16C5464.21 467.16 5482.45 473.212 5494.87 482.796C5507.23 473.172 5524.8 467.16 5544.28 467.16C5576.68 467.16 5603.77 483.778 5610.45 505.987C5611.33 505.963 5612.22 505.951 5613.11 505.951C5644.67 505.951 5670.25 521.142 5670.25 539.882C5670.25 540.295 5670.23 540.706 5670.21 541.115Z" fill="#F8F8F8"/>
<path fill-rule="evenodd" clip-rule="evenodd" d="M7419.55 541.115H6981.55C6981.55 524.572 7007 510.897 7040.04 508.719C7043.19 485.414 7072.2 467.16 7107.51 467.16C7123.77 467.16 7138.69 471.029 7150.37 477.479C7162.04 471.029 7176.96 467.16 7193.22 467.16C7213.55 467.16 7231.79 473.212 7244.21 482.796C7256.57 473.172 7274.14 467.16 7293.62 467.16C7326.02 467.16 7353.11 483.778 7359.79 505.987C7360.67 505.963 7361.56 505.951 7362.45 505.951C7394.01 505.951 7419.59 521.142 7419.59 539.882C7419.59 540.295 7419.57 540.706 7419.55 541.115Z" fill="#F8F8F8"/>
<path fill-rule="evenodd" clip-rule="evenodd" d="M208.11 252.019H-229.891C-229.891 235.476 -204.435 221.801 -171.396 219.623C-168.244 196.318 -139.241 178.064 -103.928 178.064C-87.67 178.064 -72.7493 181.933 -61.0732 188.383C-49.3972 181.933 -34.4765 178.064 -18.2183 178.064C2.11516 178.064 20.3565 184.116 32.7751 193.7C45.1349 184.076 62.6994 178.064 82.1851 178.064C114.582 178.064 141.668 194.682 148.354 216.891C149.236 216.867 150.122 216.855 151.014 216.855C182.568 216.855 208.147 232.046 208.147 250.786C208.147 251.199 208.135 251.61 208.11 252.019Z" fill="#F8F8F8"/>
<path fill-rule="evenodd" clip-rule="evenodd" d="M3384.02 252.019H2946.02C2946.02 235.476 2971.47 221.801 3004.51 219.623C3007.66 196.318 3036.67 178.064 3071.98 178.064C3088.24 178.064 3103.16 181.933 3114.83 188.383C3126.51 181.933 3141.43 178.064 3157.69 178.064C3178.02 178.064 3196.26 184.116 3208.68 193.7C3221.04 184.076 3238.61 178.064 3258.09 178.064C3290.49 178.064 3317.57 194.682 3324.26 216.891C3325.14 216.867 3326.03 216.855 3326.92 216.855C3358.47 216.855 3384.05 232.046 3384.05 250.786C3384.05 251.199 3384.04 251.61 3384.02 252.019Z" fill="#F8F8F8"/>
<path fill-rule="evenodd" clip-rule="evenodd" d="M1857.02 252.019H1419.02C1419.02 235.476 1444.47 221.801 1477.51 219.623C1480.67 196.318 1509.67 178.064 1544.98 178.064C1561.24 178.064 1576.16 181.933 1587.84 188.383C1599.51 181.933 1614.43 178.064 1630.69 178.064C1651.02 178.064 1669.27 184.116 1681.68 193.7C1694.04 184.076 1711.61 178.064 1731.09 178.064C1763.49 178.064 1790.58 194.682 1797.26 216.891C1798.14 216.867 1799.03 216.855 1799.92 216.855C1831.48 216.855 1857.06 232.046 1857.06 250.786C1857.06 251.199 1857.04 251.61 1857.02 252.019Z" fill="#F8F8F8"/>
<path fill-rule="evenodd" clip-rule="evenodd" d="M5032.93 252.019H4594.92C4594.92 235.476 4620.38 221.801 4653.42 219.623C4656.57 196.318 4685.57 178.064 4720.89 178.064C4737.15 178.064 4752.07 181.933 4763.74 188.383C4775.42 181.933 4790.34 178.064 4806.6 178.064C4826.93 178.064 4845.17 184.116 4857.59 193.7C4869.95 184.076 4887.51 178.064 4907 178.064C4939.4 178.064 4966.48 194.682 4973.17 216.891C4974.05 216.867 4974.94 216.855 4975.83 216.855C5007.38 216.855 5032.96 232.046 5032.96 250.786C5032.96 251.199 5032.95 251.61 5032.93 252.019Z" fill="#F8F8F8"/>
<path fill-rule="evenodd" clip-rule="evenodd" d="M6782.27 252.019H6344.27C6344.27 235.476 6369.72 221.801 6402.76 219.623C6405.91 196.318 6434.92 178.064 6470.23 178.064C6486.49 178.064 6501.41 181.933 6513.08 188.383C6524.76 181.933 6539.68 178.064 6555.94 178.064C6576.27 178.064 6594.51 184.116 6606.93 193.7C6619.29 184.076 6636.86 178.064 6656.34 178.064C6688.74 178.064 6715.82 194.682 6722.51 216.891C6723.39 216.867 6724.28 216.855 6725.17 216.855C6756.72 216.855 6782.3 232.046 6782.3 250.786C6782.3 251.199 6782.29 251.61 6782.27 252.019Z" fill="#F8F8F8"/>
<path fill-rule="evenodd" clip-rule="evenodd" d="M1297.07 729.472H859.068C859.068 712.928 884.524 699.254 917.563 697.076C920.715 673.771 949.718 655.516 985.031 655.516C1001.29 655.516 1016.21 659.386 1027.89 665.836C1039.56 659.386 1054.48 655.516 1070.74 655.516C1091.07 655.516 1109.32 661.569 1121.73 671.152C1134.09 661.528 1151.66 655.516 1171.14 655.516C1203.54 655.516 1230.63 672.135 1237.31 694.343C1238.19 694.319 1239.08 694.307 1239.97 694.307C1271.53 694.307 1297.11 709.499 1297.11 728.239C1297.11 728.652 1297.09 729.063 1297.07 729.472Z" fill="#F8F8F8"/>
<path fill-rule="evenodd" clip-rule="evenodd" d="M4472.98 729.472H4034.97C4034.97 712.928 4060.43 699.254 4093.47 697.076C4096.62 673.771 4125.62 655.516 4160.94 655.516C4177.2 655.516 4192.12 659.386 4203.79 665.836C4215.47 659.386 4230.39 655.516 4246.65 655.516C4266.98 655.516 4285.22 661.569 4297.64 671.152C4310 661.528 4327.56 655.516 4347.05 655.516C4379.45 655.516 4406.53 672.135 4413.22 694.343C4414.1 694.319 4414.99 694.307 4415.88 694.307C4447.43 694.307 4473.01 709.499 4473.01 728.239C4473.01 728.652 4473 729.063 4472.98 729.472Z" fill="#F8F8F8"/>
<path fill-rule="evenodd" clip-rule="evenodd" d="M2945.98 729.472H2507.98C2507.98 712.928 2533.43 699.254 2566.47 697.076C2569.62 673.771 2598.63 655.516 2633.94 655.516C2650.2 655.516 2665.12 659.386 2676.79 665.836C2688.47 659.386 2703.39 655.516 2719.65 655.516C2739.98 655.516 2758.22 661.569 2770.64 671.152C2783 661.528 2800.57 655.516 2820.05 655.516C2852.45 655.516 2879.54 672.135 2886.22 694.343C2887.1 694.319 2887.99 694.307 2888.88 694.307C2920.44 694.307 2946.02 709.499 2946.02 728.239C2946.02 728.652 2946 729.063 2945.98 729.472Z" fill="#F8F8F8"/>
<path fill-rule="evenodd" clip-rule="evenodd" d="M6121.88 729.472H5683.88C5683.88 712.928 5709.34 699.254 5742.38 697.076C5745.53 673.771 5774.53 655.516 5809.85 655.516C5826.1 655.516 5841.03 659.386 5852.7 665.836C5864.38 659.386 5879.3 655.516 5895.56 655.516C5915.89 655.516 5934.13 661.569 5946.55 671.152C5958.91 661.528 5976.47 655.516 5995.96 655.516C6028.36 655.516 6055.44 672.135 6062.13 694.343C6063.01 694.319 6063.9 694.307 6064.79 694.307C6096.34 694.307 6121.92 709.499 6121.92 728.239C6121.92 728.652 6121.91 729.063 6121.88 729.472Z" fill="#F8F8F8"/>
</g>
<defs>
<clipPath id="clip0_131_2">
<rect width="7067" height="700" fill="white"/>
</clipPath>
</defs>
</svg>
