<svg width="439" height="131" viewBox="0 0 439 131" fill="none" xmlns="http://www.w3.org/2000/svg">
<path fill-rule="evenodd" clip-rule="evenodd" d="M438.469 130.083H0.468262C0.468262 101.174 25.9243 77.2788 58.9631 73.472C62.1149 32.7477 91.1178 0.849121 126.431 0.849121C142.689 0.849121 157.61 7.61075 169.286 18.8823C180.962 7.61075 195.882 0.849121 212.141 0.849121C232.474 0.849121 250.715 11.4252 263.134 28.1726C275.494 11.3546 293.058 0.849121 312.544 0.849121C344.941 0.849121 372.027 29.8887 378.713 68.6976C379.595 68.6556 380.481 68.6344 381.373 68.6344C412.927 68.6344 438.506 95.1813 438.506 127.929C438.506 128.65 438.494 129.368 438.469 130.083Z" fill="#F8F8F8"/>
</svg>
