<?xml version="1.0" encoding="UTF-8"?>
<svg id="Layer_2" xmlns="http://www.w3.org/2000/svg" xmlns:xlink="http://www.w3.org/1999/xlink" version="1.1" viewBox="0 0 5163.5 4468.3">
  <!-- Generator: Adobe Illustrator 29.2.1, SVG Export Plug-In . SVG Version: 2.1.0 Build 116)  -->
  <defs>
    <style>
      .st0, .st1, .st2, .st3, .st4 {
        fill: none;
      }

      .st5 {
        fill: #8e6728;
      }

      .st6 {
        fill: #ffe712;
      }

      .st7 {
        fill: #f6fbfc;
      }

      .st8 {
        fill: #8d6829;
      }

      .st9 {
        fill: #771315;
      }

      .st10 {
        fill: #e82f2d;
      }

      .st11 {
        fill: #1d4443;
      }

      .st1 {
        stroke: #8e6728;
        stroke-width: 24.2px;
      }

      .st1, .st2 {
        stroke-linecap: round;
      }

      .st1, .st2, .st3, .st4 {
        stroke-miterlimit: 10;
      }

      .st12 {
        clip-path: url(#clippath-1);
      }

      .st13 {
        fill: #a61f23;
      }

      .st14 {
        fill: #680f19;
      }

      .st2, .st3 {
        stroke-width: 19.4px;
      }

      .st2, .st4 {
        stroke: #a61f23;
      }

      .st3 {
        stroke: #771315;
      }

      .st15 {
        fill: #84161d;
      }

      .st16 {
        fill: #d3932a;
      }

      .st17 {
        clip-path: url(#clippath);
      }

      .st4 {
        stroke-width: 9.7px;
      }
    </style>
    <clipPath id="clippath">
      <path class="st0" d="M4505.9,514.4l301.9,192.5-1032.4,1244.3s-401.5,567-881.4,830.1c0,0-97.7,22.3-137.4,168.4-39.7,146.1-153.8,653.1-968.5,912.4,0,0-607.6,1158.1-817.6,101.6,0,0-235.1,80.3-360.9,94.8,0,0-76.4-142.2-76.4-265.1,0,0,544.7-607.6,675.3-650.2,0,0,180-720.8,689.9-839.8,0,0,65.8-178,172.2-312.5,106.4-134.5,310.6-289.3,310.6-289.3l-482.8,306.7s-165.4,271.9-323.2,477l-307.7-100.6s175.1-526.3,345.4-683.1c170.3-156.7,659.9-576.7,1137.8-560.2,0,0,193.5,25.2,359,49.3l581.5,20.3s271.9-158.7,492.5-389c220.6-230.3,323.2-307.7,323.2-307.7h-1Z"/>
    </clipPath>
    <clipPath id="clippath-1">
      <polygon class="st0" points="3220 1033 3108.7 1190.7 3341.9 1500.3 3691.2 1326.1 3691.2 1033 3220 1033"/>
    </clipPath>
  </defs>
  <path class="st10" d="M3044.3,2147.5"/>
  <path class="st16" d="M3265.8,1984.7"/>
  <g>
    <path class="st5" d="M3848.9,660.5s47.4-82.2,121.9-51.3c74.5,31,92.9,213.8-39.7,311.5-132.6,97.7-167.4-28.1-167.4-28.1l85.1-231.2v-1Z"/>
    <path class="st5" d="M3074.9,662.4s-47.4-82.2-121.9-51.3c-74.5,31-92.9,213.8,39.7,311.5,132.6,97.7,167.4-28.1,167.4-28.1l-85.1-231.2v-1Z"/>
    <path class="st13" d="M3824.7,1724.7s-185.8,768.2-174.2,1248.1c9.7,371.5-263.2,847.6-387,1044-35.8,57.1-100.6,90-167.4,86.1-300.9-17.4-1134.9-93.9-1282-427.7-147.1-333.8-1390.4-474.1-1505.5-474.1s-229.3-35.8-97.7-198.3c131.6-162.5,384.1-198.3,539.9-456.7,155.8-258.3,985-609.5,985-609.5l714-435.4,1374.9,223.5h0Z"/>
    <path class="st6" d="M83.2,4286.8s15.5-150,223.5-337.7c175.1-159.6,225.4-155.8,225.4-155.8"/>
    <path class="st13" d="M2704.3,1208.1s261.2-146.1,685-101.6c423.8,44.5,521.5,113.2,521.5,113.2l-99.7,123.8-1080.7-57.1-26.1-78.4Z"/>
    <g>
      <path class="st10" d="M4505.9,514.4l301.9,192.5-1032.4,1244.3s-401.5,567-881.4,830.1c0,0-97.7,22.3-137.4,168.4-39.7,146.1-153.8,653.1-968.5,912.4,0,0-607.6,1158.1-817.6,101.6,0,0-235.1,80.3-360.9,94.8,0,0-76.4-142.2-76.4-265.1,0,0,544.7-607.6,675.3-650.2,0,0,180-720.8,689.9-839.8,0,0,65.8-178,172.2-312.5,106.4-134.5,310.6-289.3,310.6-289.3l-482.8,306.7s-165.4,271.9-323.2,477l-307.7-100.6s175.1-526.3,345.4-683.1c170.3-156.7,659.9-576.7,1137.8-560.2,0,0,193.5,25.2,359,49.3l581.5,20.3s271.9-158.7,492.5-389c220.6-230.3,323.2-307.7,323.2-307.7h-1Z"/>
      <g class="st17">
        <g>
          <path class="st6" d="M1563.6,1805.1c71.6-92.9,158.7-172.2,250.6-244.8,236.1-186.7,506-331.9,791.4-428.6-171.3-1-340.6,48.4-494.4,122.9-153.8,75.5-294.1,175.1-428.6,281.6-77.4,61-152.9,124.8-212.9,203.2-65.8,86.1-109.3,186.7-151.9,286.4-28.1,64.8-55.1,129.7-73.5,198.3-6.8,26.1-12.6,55.1-2.9,80.3,6.8,15.5,31.9,42.6,52.2,33.9,20.3-8.7,19.4-40.6,25.2-54.2,21.3-56.1,43.5-113.2,67.7-168.4,47.4-109.3,102.6-216.7,176.1-311.5l1,1Z"/>
          <path class="st6" d="M1286.9,2923.5c93.9-254.5,297-458.6,527.3-601.8,19.4-11.6,41.6-32.9,31-52.2-9.7-18.4-237,177.1-256.4,184.8-225.4,89-218.7,69.7-333.8,283.5-81.3,151.9-67.7,245.8-66.8,418,1,172.2-31,314.5-20.3,283.5,10.6-31,28.1-141.3,32.9-174.2,12.6-105.5,50.3-240.9,87.1-340.6l-1-1Z"/>
          <path class="st6" d="M3847,1136.5c216.7-149,409.3-333.8,567-543.8-56.1,25.2-105.5,62.9-151.9,102.6-98.7,82.2-190.6,171.3-282.5,260.3-48.4,46.4-96.8,93.9-145.1,140.3-48.4,46.4-68.7,58.1-64.8,66.8,8.7,18.4,69.7-21.3,78.4-27.1l-1,1Z"/>
        </g>
      </g>
    </g>
    <ellipse class="st6" cx="3078.5" cy="2130.9" rx="315.4" ry="139.3" transform="translate(-605.1 2801) rotate(-45)"/>
    <path class="st6" d="M1956.4,2167.9s231.2,610.5,848.5,678.2l-42.6,82.2s-549.6,53.2-865.9-626l59-134.5h1Z"/>
    <ellipse class="st15" cx="3203.7" cy="1600.1" rx="153.8" ry="56.1" transform="translate(-300.9 2336.1) rotate(-38.4)"/>
    <ellipse class="st15" cx="3462.3" cy="1613.7" rx="56.1" ry="143.2" transform="translate(-357.6 1607.8) rotate(-24.9)"/>
    <path class="st6" d="M667.6,3829.1s-27.1-201.2,225.4-456.7c258.3-260.3,295.1-217.7,295.1-217.7l-520.5,673.4v1Z"/>
    <path class="st9" d="M1000.5,3745.9s155.8-450.9,187.7-590.2c0,0-465.4,283.5-517.6,648.3-24.2,168.4,117.1,166.4,220.6,98.7,53.2-34.8,101.6-125.8,110.3-155.8l-1-1Z"/>
    <path class="st9" d="M608.6,4058.5s-220.6,343.5-455.7,318.3c-235.1-25.2,157.7-455.7,379.3-583.4,0,0,76.4,265.1,76.4,265.1Z"/>
    <path class="st6" d="M4488.4,468.9s27.1-70.6,99.7-35.8c72.6,34.8,188.7,110.3,268,158.7,43.9,26.8,32.9,37.7,1.9,89-31,50.3-43.5,62.9-97.7,34.8-54.2-28.1-267-168.4-267-168.4,0,0-45.5-27.1-4.8-78.4h0Z"/>
    <path class="st16" d="M4586.2,501.8s-102.6-298,26.1-312.5c33.9-3.9,54.2,14.5,54.2,14.5,0,0,103.5-165.4,203.2-141.3,25.2,5.8,41.6,24.2,45.5,48.4,61-15.5,109.3,54.2,94.8,78.4,33.9,0,101.6,46.4,50.3,118,0,0,61.9,81.3-5.8,143.2-56.1,51.3-70.6,70.6-207.1,119-136.4,48.4-39.7,34.8-56.1,45.5-16.4,10.6-35.8,14.5-122.9-36.8-55.1-31.9-82.2-77.4-82.2-77.4v1Z"/>
    <g>
      <polygon class="st16" points="3220 1033 3108.7 1190.7 3341.9 1500.3 3691.2 1326.1 3691.2 1033 3220 1033"/>
      <g class="st12">
        <path class="st5" d="M3223.9,1068.8s58.1,168.4,287.4,172.2c0,0-7.7,47.4-50.3,82.2-42.6,34.8-165.4,180-165.4,180l215.8,4.8,202.2-166.4-16.4-289.3-538-15.5,65.8,31-1,1Z"/>
      </g>
    </g>
    <path class="st13" d="M3759.9,1165.5s50.3,74.5,33.9,159.6c-19.4,96.8-116.1,206.1-311.5,208-368.6,3.9-614.4-110.3-553.4-368.6l82.2-8.7,98.7,34.8s90.9,86.1,118,118c27.1,31.9,115.1,162.5,115.1,162.5l48.4,6.8s70.6-54.2,165.4-109.3c94.8-55.1,135.5-61,135.5-61v-110.3l68.7-32.9-1,1Z"/>
    <ellipse class="st14" cx="3355.1" cy="1501.1" rx="46.4" ry="118" transform="translate(1572.8 4715.7) rotate(-85.1)"/>
    <path class="st16" d="M3480.3,95.4c-301.9,0-519.6,265.1-467.3,663.7,52.2,398.6,194.5,371.5,256.4,397.7,148,62.9,305.7,31,407.3-29,101.6-60,191.6-228.3,221.6-392.8,82.2-448.9-188.7-639.5-417-639.5h-1Z"/>
    <path class="st5" d="M3431.9,722.4l-41.6,103.5c-8.7,22.3,7.7,45.5,31.9,45.5h91.9c22.3,0,37.7-19.4,33.9-40.6l-23.2-107.4c-3.9-17.4-20.3-28.1-38.7-26.1l-26.1,3.9c-12.6,1.9-22.3,9.7-27.1,20.3l-1,1Z"/>
    <g>
      <path class="st11" d="M3080.7,544.4c80.3-109.3,327-5.8,394.8-7.7,67.7-1.9,188.7-39.7,277.7-31,89,8.7,169.3,80.3,101.6,221.6-67.7,141.3-262.2,12.6-367.7,10.6-105.5-1.9-180,70.6-304.8,62.9-124.8-7.7-182.9-148-101.6-257.4v1Z"/>
      <ellipse class="st7" cx="3251" cy="647.9" rx="112.2" ry="65.8"/>
      <ellipse class="st7" cx="3681.5" cy="647.9" rx="112.2" ry="65.8"/>
    </g>
    <path class="st1" d="M3323.5,957.5s24.2,38.7,80.3,30"/>
    <path class="st1" d="M3323.5,476.6s-36.8-48.4-110.3-29"/>
    <path class="st1" d="M3735.7,446.6s-56.1-22.3-109.3,31"/>
    <path class="st2" d="M1788,3862s224.5-373.5,267-675.3c42.6-301.9,6.8-58.1,6.8-86.1"/>
    <path class="st2" d="M2166.4,3140.3s-48.4,31-111.3,45.5"/>
    <path class="st2" d="M1174.6,3792.4s-27.1-466.4,29-680.2"/>
    <path class="st3" d="M964.7,3965.6s-21.3-105.5,6.8-244.8"/>
    <path class="st4" d="M2461.5,1776"/>
    <path class="st4" d="M1991.2,2032.4"/>
    <path class="st4" d="M2506.9,1807"/>
    <path class="st6" d="M1628.4,2481.4c-16.4,42.6-13.5,77.4-80.3,61-61.9-14.5-213.8-81.3-288.3-108.4-17.4-6.8-31.9-22.3-17.4-60,14.5-37.7,27.1-59,77.4-45.5,50.3,13.5,193.5,63.9,263.2,83.2,20.3,5.8,68.7,9.7,45.5,69.7h0Z"/>
    <path class="st16" d="M1529.7,2472.2s-12.6,31.9,1.9,60c42.6,85.1,139.3,246.7,43.5,280.6-33.9,11.6-58.1-1.9-58.1-1.9,0,0-66.8,193.5-175.1,191.6-27.1,0-33.9-31-58.1-38.7-58.1,30-125.8-37.7-120.9-48.4,0,0-108.4-33.9-72.6-120,0,0-72.6-61-17.4-140.3,55.1-79.3,65.8-95.8,194.5-178,128.7-82.2,41.6-75.5,41.6-75.5,0,0,17.4-7.7,119,24.2,101.6,31.9,102.6,45.5,102.6,45.5l-1,1Z"/>
    <path class="st8" d="M4809.7,370.2s-11.6,19.4,15.5,42.6c27.1,23.2,39.7,17.4,62.9,6.8,0,0-7.7,13.5,14.5,36.8,22.3,23.2,90.9,5.8,90.9,5.8,0,0-140.3,82.2-196.4,41.6-56.1-40.6-63.9-72.6-89-23.2,0,0,6.8-71.6-54.2-117.1-61-45.5-30-19.4-22.3-41.6,13.5,29,119,102.6,177.1,48.4h1Z"/>
    <path class="st8" d="M4884.2,154.4s-95.8,101.6-109.3,112.2c0,0,99.7-80.3,109.3-112.2Z"/>
    <path class="st6" d="M4671.3,210.5s97.7,81.3,108.4,93.9c0,0-77.4-85.1-108.4-93.9h0Z"/>
    <path class="st8" d="M4952.9,222.2s-95.8,101.6-109.3,112.2c0,0,99.7-80.3,109.3-112.2Z"/>
    <path class="st8" d="M5029.3,313.1s-111.3,83.2-126.7,91.9c0,0,112.2-61,126.7-91.9Z"/>
  </g>
</svg>