<?xml version="1.0" encoding="UTF-8"?>
<svg id="Layer_2" xmlns="http://www.w3.org/2000/svg" xmlns:xlink="http://www.w3.org/1999/xlink" version="1.1" viewBox="0 0 621 514">
  <!-- Generator: Adobe Illustrator 29.2.1, SVG Export Plug-In . SVG Version: 2.1.0 Build 116)  -->
  <defs>
    <style>
      .st0 {
        fill: #8e6728;
      }

      .st1 {
        fill: #f6fbfc;
      }

      .st2 {
        fill: #8d6829;
      }

      .st3 {
        stroke: #8e6728;
        stroke-width: 2.5px;
      }

      .st3, .st4 {
        stroke-linecap: round;
      }

      .st3, .st4, .st5, .st6 {
        fill: none;
        stroke-miterlimit: 10;
      }

      .st4, .st5 {
        stroke: #a61f23;
      }

      .st4, .st6 {
        stroke-width: 2px;
      }

      .st7 {
        fill: #1d4443;
      }

      .st8 {
        clip-path: url(#clippath-1);
      }

      .st9 {
        fill: #a61f23;
      }

      .st10 {
        fill: #d0c037;
      }

      .st11 {
        fill: #771315;
      }

      .st12 {
        fill: #680f19;
      }

      .st13 {
        fill: #84161d;
      }

      .st14 {
        fill: #e82f2d;
      }

      .st15 {
        fill: #d3932a;
      }

      .st6 {
        stroke: #771315;
      }

      .st16 {
        clip-path: url(#clippath);
      }
    </style>
    <clipPath id="clippath">
      <path class="st14" d="M492,90.4l31.2,19.9-106.7,128.6s-41.5,58.6-91.1,85.8c0,0-10.1,2.3-14.2,17.4-4.1,15.1-15.9,67.5-100.1,94.3,0,0-62.8,119.7-84.5,10.5,0,0-24.3,8.3-37.3,9.8,0,0-7.9-14.7-7.9-27.4,0,0,56.3-62.8,69.8-67.2,0,0,18.6-74.5,71.3-86.8,0,0,6.8-18.4,17.8-32.3s32.1-29.9,32.1-29.9l-49.9,31.7s-17.1,28.1-33.4,49.3l-31.8-10.4s18.1-54.4,35.7-70.6,68.2-59.6,117.6-57.9c0,0,20,2.6,37.1,5.1l60.1,2.1s28.1-16.4,50.9-40.2,33.4-31.8,33.4-31.8Z"/>
    </clipPath>
    <clipPath id="clippath-1">
      <polygon class="st15" points="359.1 144 347.6 160.3 371.7 192.3 407.8 174.3 407.8 144 359.1 144"/>
    </clipPath>
  </defs>
  <path class="st14" d="M813.5,217.1"/>
  <path class="st15" d="M1035,54.3"/>
  <g>
    <path class="st0" d="M424.1,105.5s4.9-8.5,12.6-5.3,9.6,22.1-4.1,32.2-17.3-2.9-17.3-2.9l8.8-23.9Z"/>
    <path class="st0" d="M344.1,105.7s-4.9-8.5-12.6-5.3-9.6,22.1,4.1,32.2,17.3-2.9,17.3-2.9l-8.8-23.9Z"/>
    <path class="st9" d="M421.6,215.5s-19.2,79.4-18,129c1,38.4-27.2,87.6-40,107.9-3.7,5.9-10.4,9.3-17.3,8.9-31.1-1.8-117.3-9.7-132.5-44.2s-143.7-49-155.6-49-23.7-3.7-10.1-20.5,39.7-20.5,55.8-47.2,101.8-63,101.8-63l73.8-45,142.1,23.1Z"/>
    <path class="st10" d="M34.9,480.3s1.6-15.5,23.1-34.9c18.1-16.5,23.3-16.1,23.3-16.1"/>
    <path class="st9" d="M305.8,162.1s27-15.1,70.8-10.5,53.9,11.7,53.9,11.7l-10.3,12.8-111.7-5.9-2.7-8.1Z"/>
    <g>
      <path class="st14" d="M492,90.4l31.2,19.9-106.7,128.6s-41.5,58.6-91.1,85.8c0,0-10.1,2.3-14.2,17.4-4.1,15.1-15.9,67.5-100.1,94.3,0,0-62.8,119.7-84.5,10.5,0,0-24.3,8.3-37.3,9.8,0,0-7.9-14.7-7.9-27.4,0,0,56.3-62.8,69.8-67.2,0,0,18.6-74.5,71.3-86.8,0,0,6.8-18.4,17.8-32.3s32.1-29.9,32.1-29.9l-49.9,31.7s-17.1,28.1-33.4,49.3l-31.8-10.4s18.1-54.4,35.7-70.6,68.2-59.6,117.6-57.9c0,0,20,2.6,37.1,5.1l60.1,2.1s28.1-16.4,50.9-40.2,33.4-31.8,33.4-31.8Z"/>
      <g class="st16">
        <path class="st10" d="M187.9,223.8c7.4-9.6,16.4-17.8,25.9-25.3,24.4-19.3,52.3-34.3,81.8-44.3-17.7-.1-35.2,5-51.1,12.7-15.9,7.8-30.4,18.1-44.3,29.1-8,6.3-15.8,12.9-22,21-6.8,8.9-11.3,19.3-15.7,29.6-2.9,6.7-5.7,13.4-7.6,20.5-.7,2.7-1.3,5.7-.3,8.3.7,1.6,3.3,4.4,5.4,3.5s2-4.2,2.6-5.6c2.2-5.8,4.5-11.7,7-17.4,4.9-11.3,10.6-22.4,18.2-32.2Z"/>
        <path class="st10" d="M159.3,339.4c9.7-26.3,30.7-47.4,54.5-62.2,2-1.2,4.3-3.4,3.2-5.4-1-1.9-24.5,18.3-26.5,19.1-23.3,9.2-22.6,7.2-34.5,29.3-8.4,15.7-7,25.4-6.9,43.2s-3.2,32.5-2.1,29.3,2.9-14.6,3.4-18c1.3-10.9,5.2-24.9,9-35.2Z"/>
        <path class="st10" d="M423.9,154.7c22.4-15.4,42.3-34.5,58.6-56.2-5.8,2.6-10.9,6.5-15.7,10.6-10.2,8.5-19.7,17.7-29.2,26.9-5,4.8-10,9.7-15,14.5s-7.1,6-6.7,6.9c.9,1.9,7.2-2.2,8.1-2.8Z"/>
      </g>
    </g>
    <ellipse class="st10" cx="344.5" cy="257.5" rx="32.6" ry="14.4" transform="translate(-81.2 319) rotate(-45)"/>
    <path class="st10" d="M228.5,261.3s23.9,63.1,87.7,70.1l-4.4,8.5s-56.8,5.5-89.5-64.7l6.1-13.9Z"/>
    <ellipse class="st13" cx="357.4" cy="202.4" rx="15.9" ry="5.8" transform="translate(-48.4 266) rotate(-38.4)"/>
    <ellipse class="st13" cx="384.1" cy="203.9" rx="5.8" ry="14.8" transform="translate(-50.1 180.8) rotate(-24.9)"/>
    <path class="st10" d="M95.3,433s-2.8-20.8,23.3-47.2c26.7-26.9,30.5-22.5,30.5-22.5l-53.8,69.6Z"/>
    <path class="st11" d="M129.7,424.4s16.1-46.6,19.4-61c0,0-48.1,29.3-53.5,67-2.5,17.4,12.1,17.2,22.8,10.2,5.5-3.6,10.5-13,11.4-16.1Z"/>
    <path class="st11" d="M89.2,456.7s-22.8,35.5-47.1,32.9,16.3-47.1,39.2-60.3l7.9,27.4Z"/>
    <path class="st10" d="M490.2,85.7s2.8-7.3,10.3-3.7,19.5,11.4,27.7,16.4,3.4,3.9.2,9.2c-3.2,5.2-4.5,6.5-10.1,3.6s-27.6-17.4-27.6-17.4c0,0-4.7-2.8-.5-8.1Z"/>
    <path class="st15" d="M500.3,89.1s-10.6-30.8,2.7-32.3c3.5-.4,5.6,1.5,5.6,1.5,0,0,10.7-17.1,21-14.6,2.6.6,4.3,2.5,4.7,5,6.3-1.6,11.3,5.6,9.8,8.1,3.5,0,10.5,4.8,5.2,12.2,0,0,6.4,8.4-.6,14.8-5.8,5.3-7.3,7.3-21.4,12.3s-4.1,3.6-5.8,4.7-3.7,1.5-12.7-3.8c-5.7-3.3-8.5-8-8.5-8Z"/>
    <g>
      <polygon class="st15" points="359.1 144 347.6 160.3 371.7 192.3 407.8 174.3 407.8 144 359.1 144"/>
      <g class="st8">
        <path class="st0" d="M359.5,147.7s6,17.4,29.7,17.8c0,0-.8,4.9-5.2,8.5s-17.1,18.6-17.1,18.6l22.3.5,20.9-17.2-1.7-29.9-55.6-1.6,6.8,3.2Z"/>
      </g>
    </g>
    <path class="st9" d="M414.9,157.7s5.2,7.7,3.5,16.5c-2,10-12,21.3-32.2,21.5-38.1.4-63.5-11.4-57.2-38.1l8.5-.9,10.2,3.6s9.4,8.9,12.2,12.2,11.9,16.8,11.9,16.8l5,.7s7.3-5.6,17.1-11.3,14-6.3,14-6.3v-11.4l7.1-3.4Z"/>
    <ellipse class="st12" cx="373" cy="192.3" rx="4.8" ry="12.2" transform="translate(149.6 547.6) rotate(-85.1)"/>
    <path class="st15" d="M386,47.1c-31.2,0-53.7,27.4-48.3,68.6s20.1,38.4,26.5,41.1c15.3,6.5,31.6,3.2,42.1-3s19.8-23.6,22.9-40.6c8.5-46.4-19.5-66.1-43.1-66.1Z"/>
    <path class="st0" d="M381,111.9l-4.3,10.7c-.9,2.3.8,4.7,3.3,4.7h9.5c2.3,0,3.9-2,3.5-4.2l-2.4-11.1c-.4-1.8-2.1-2.9-4-2.7l-2.7.4c-1.3.2-2.3,1-2.8,2.1Z"/>
    <g>
      <path class="st7" d="M344.7,93.5c8.3-11.3,33.8-.6,40.8-.8s19.5-4.1,28.7-3.2,17.5,8.3,10.5,22.9-27.1,1.3-38,1.1-18.6,7.3-31.5,6.5-18.9-15.3-10.5-26.6Z"/>
      <ellipse class="st1" cx="362.3" cy="104.2" rx="11.6" ry="6.8"/>
      <ellipse class="st1" cx="406.8" cy="104.2" rx="11.6" ry="6.8"/>
    </g>
    <path class="st3" d="M369.8,136.2s2.5,4,8.3,3.1"/>
    <path class="st3" d="M369.8,86.5s-3.8-5-11.4-3"/>
    <path class="st3" d="M412.4,83.4s-5.8-2.3-11.3,3.2"/>
    <path class="st4" d="M211.1,436.4s23.2-38.6,27.6-69.8.7-6,.7-8.9"/>
    <path class="st4" d="M250.2,361.8s-5,3.2-11.5,4.7"/>
    <path class="st4" d="M147.7,429.2s-2.8-48.2,3-70.3"/>
    <path class="st6" d="M126,447.1s-2.2-10.9.7-25.3"/>
    <path class="st5" d="M280.7,220.8"/>
    <path class="st5" d="M232.1,247.3"/>
    <path class="st5" d="M285.4,224"/>
    <path class="st10" d="M194.6,293.7c-1.7,4.4-1.4,8-8.3,6.3-6.4-1.5-22.1-8.4-29.8-11.2-1.8-.7-3.3-2.3-1.8-6.2s2.8-6.1,8-4.7,20,6.6,27.2,8.6c2.1.6,7.1,1,4.7,7.2Z"/>
    <path class="st15" d="M184.4,290.8s-1.3,3.3.2,6.2c4.4,8.8,14.4,25.5,4.5,29-3.5,1.2-6-.2-6-.2,0,0-6.9,20-18.1,19.8-2.8,0-3.5-3.2-6-4-6,3.1-13-3.9-12.5-5,0,0-11.2-3.5-7.5-12.4,0,0-7.5-6.3-1.8-14.5s6.8-9.9,20.1-18.4,4.3-7.8,4.3-7.8c0,0,1.8-.8,12.3,2.5s10.6,4.7,10.6,4.7Z"/>
    <path class="st2" d="M523.4,75.5s-1.2,2,1.6,4.4,4.1,1.8,6.5.7c0,0-.8,1.4,1.5,3.8s9.4.6,9.4.6c0,0-14.5,8.5-20.3,4.3s-6.6-7.5-9.2-2.4c0,0,.7-7.4-5.6-12.1s-3.1-2-2.3-4.3c1.4,3,12.3,10.6,18.3,5Z"/>
  </g>
  <path class="st2" d="M531.1,53.2s-9.9,10.5-11.3,11.6c0,0,10.3-8.3,11.3-11.6Z"/>
  <path class="st2" d="M509.1,59s10.1,8.4,11.2,9.7c0,0-8-8.8-11.2-9.7Z"/>
  <path class="st2" d="M538.2,60.2s-9.9,10.5-11.3,11.6c0,0,10.3-8.3,11.3-11.6Z"/>
  <path class="st2" d="M546.1,69.6s-11.5,8.6-13.1,9.5c0,0,11.6-6.3,13.1-9.5Z"/>
</svg>