<?xml version="1.0" encoding="UTF-8"?>
<svg id="Layer_2" xmlns="http://www.w3.org/2000/svg" xmlns:xlink="http://www.w3.org/1999/xlink" version="1.1" viewBox="0 0 1121.1 970.2">
  <!-- Generator: Adobe Illustrator 29.2.1, SVG Export Plug-In . SVG Version: 2.1.0 Build 116)  -->
  <defs>
    <style>
      .st0, .st1, .st2, .st3, .st4 {
        fill: none;
      }

      .st1 {
        stroke-width: 1.9px;
      }

      .st1, .st2, .st3, .st4 {
        stroke-miterlimit: 10;
      }

      .st1, .st4 {
        stroke: #a61f23;
      }

      .st5 {
        fill: #8e6728;
      }

      .st6 {
        fill: #ffe712;
      }

      .st7 {
        fill: #f6fbfc;
      }

      .st8 {
        fill: #8d6829;
      }

      .st9 {
        fill: #771315;
      }

      .st2 {
        stroke: #8e6728;
        stroke-width: 4.8px;
      }

      .st2, .st4 {
        stroke-linecap: round;
      }

      .st10 {
        fill: #e82f2d;
      }

      .st11 {
        fill: #1d4443;
      }

      .st12 {
        clip-path: url(#clippath-1);
      }

      .st13 {
        fill: #a61f23;
      }

      .st14 {
        fill: #680f19;
      }

      .st3 {
        stroke: #771315;
      }

      .st3, .st4 {
        stroke-width: 3.9px;
      }

      .st15 {
        fill: #84161d;
      }

      .st16 {
        fill: #d3932a;
      }

      .st17 {
        clip-path: url(#clippath);
      }
    </style>
    <clipPath id="clippath">
      <path class="st0" d="M946.1,141.5l60.3,38.5-206.2,248.6s-80.2,113.3-176.1,165.8c0,0-19.5,4.4-27.4,33.6-7.9,29.2-30.7,130.5-193.5,182.3,0,0-121.4,231.4-163.3,20.3,0,0-47,16-72.1,18.9,0,0-15.3-28.4-15.3-53,0,0,108.8-121.4,134.9-129.9,0,0,36-144,137.8-167.8,0,0,13.1-35.6,34.4-62.4,21.3-26.9,62-57.8,62-57.8l-96.4,61.3s-33.1,54.3-64.6,95.3l-61.5-20.1s35-105.1,69-136.5c34-31.3,131.8-115.2,227.3-111.9,0,0,38.7,5,71.7,9.9l116.2,4.1s54.3-31.7,98.4-77.7c44.1-46,64.6-61.5,64.6-61.5h-.2Z"/>
    </clipPath>
    <clipPath id="clippath-1">
      <polygon class="st0" points="689.3 245.1 667 276.6 713.6 338.5 783.4 303.7 783.4 245.1 689.3 245.1"/>
    </clipPath>
  </defs>
  <path class="st10" d="M1023.1,398.4"/>
  <path class="st16" d="M1244.6,235.6"/>
  <g>
    <path class="st5" d="M814.9,170.7s9.5-16.4,24.4-10.2c14.9,6.2,18.6,42.7-7.9,62.2-26.5,19.5-33.4-5.6-33.4-5.6l17-46.2v-.2Z"/>
    <path class="st5" d="M660.3,171.1s-9.5-16.4-24.4-10.2c-14.9,6.2-18.6,42.7,7.9,62.2,26.5,19.5,33.4-5.6,33.4-5.6l-17-46.2v-.2Z"/>
    <path class="st13" d="M810.1,383.3s-37.1,153.5-34.8,249.3c1.9,74.2-52.6,169.3-77.3,208.6-7.2,11.4-20.1,18-33.4,17.2-60.1-3.5-226.7-18.7-256.1-85.4-29.4-66.7-277.8-94.7-300.8-94.7s-45.8-7.2-19.5-39.6c26.3-32.5,76.7-39.6,107.9-91.2s196.8-121.8,196.8-121.8l142.6-87,274.7,44.6h0Z"/>
    <path class="st6" d="M62.6,895.1s3.1-30,44.6-67.5c35-31.9,45-31.1,45-31.1"/>
    <path class="st13" d="M586.2,280.1s52.2-29.2,136.8-20.3c84.7,8.9,104.2,22.6,104.2,22.6l-19.9,24.7-215.9-11.4-5.2-15.7Z"/>
    <g>
      <path class="st10" d="M946.1,141.5l60.3,38.5-206.2,248.6s-80.2,113.3-176.1,165.8c0,0-19.5,4.4-27.4,33.6-7.9,29.2-30.7,130.5-193.5,182.3,0,0-121.4,231.4-163.3,20.3,0,0-47,16-72.1,18.9,0,0-15.3-28.4-15.3-53,0,0,108.8-121.4,134.9-129.9,0,0,36-144,137.8-167.8,0,0,13.1-35.6,34.4-62.4,21.3-26.9,62-57.8,62-57.8l-96.4,61.3s-33.1,54.3-64.6,95.3l-61.5-20.1s35-105.1,69-136.5c34-31.3,131.8-115.2,227.3-111.9,0,0,38.7,5,71.7,9.9l116.2,4.1s54.3-31.7,98.4-77.7c44.1-46,64.6-61.5,64.6-61.5h-.2Z"/>
      <g class="st17">
        <g>
          <path class="st6" d="M358.3,399.4c14.3-18.6,31.7-34.4,50.1-48.9,47.2-37.3,101.1-66.3,158.1-85.6-34.2-.2-68,9.7-98.8,24.5-30.7,15.1-58.8,35-85.6,56.2-15.5,12.2-30.5,24.9-42.5,40.6-13.1,17.2-21.8,37.3-30.3,57.2-5.6,13-11,25.9-14.7,39.6-1.4,5.2-2.5,11-.6,16,1.4,3.1,6.4,8.5,10.4,6.8s3.9-8.1,5-10.8c4.3-11.2,8.7-22.6,13.5-33.6,9.5-21.8,20.5-43.3,35.2-62.2l.2.2Z"/>
          <path class="st6" d="M303.1,622.8c18.7-50.8,59.3-91.6,105.3-120.2,3.9-2.3,8.3-6.6,6.2-10.4-1.9-3.7-47.4,35.4-51.2,36.9-45,17.8-43.7,13.9-66.7,56.6-16.2,30.3-13.5,49.1-13.3,83.5.2,34.4-6.2,62.8-4.1,56.6,2.1-6.2,5.6-28.2,6.6-34.8,2.5-21.1,10.1-48.1,17.4-68l-.2-.2Z"/>
          <path class="st6" d="M814.5,265.8c43.3-29.8,81.8-66.7,113.3-108.6-11.2,5-21.1,12.6-30.3,20.5-19.7,16.4-38.1,34.2-56.4,52-9.7,9.3-19.3,18.7-29,28-9.7,9.3-13.7,11.6-13,13.3,1.7,3.7,13.9-4.3,15.7-5.4l-.2.2Z"/>
        </g>
      </g>
    </g>
    <ellipse class="st6" cx="661" cy="464.5" rx="63" ry="27.8" transform="translate(-134.8 603.4) rotate(-45)"/>
    <path class="st6" d="M436.8,471.9s46.2,122,169.5,135.5l-8.5,16.4s-109.8,10.6-173-125.1l11.8-26.9h.2Z"/>
    <ellipse class="st15" cx="686" cy="358.4" rx="30.7" ry="11.2" transform="translate(-74.3 503.6) rotate(-38.4)"/>
    <ellipse class="st15" cx="737.7" cy="361.1" rx="11.2" ry="28.6" transform="translate(-83.5 344.2) rotate(-24.9)"/>
    <path class="st6" d="M179.4,803.7s-5.4-40.2,45-91.2c51.6-52,59-43.5,59-43.5l-104,134.5v.2Z"/>
    <path class="st9" d="M245.9,787.1s31.1-90.1,37.5-117.9c0,0-93,56.6-103.4,129.5-4.8,33.6,23.4,33.2,44.1,19.7,10.6-7,20.3-25.1,22-31.1l-.2-.2Z"/>
    <path class="st9" d="M167.6,849.5s-44.1,68.6-91,63.6c-47-5,31.5-91,75.8-116.6,0,0,15.3,53,15.3,53Z"/>
    <path class="st6" d="M942.7,132.4s5.4-14.1,19.9-7.2c14.5,7,37.7,22,53.5,31.7,8.8,5.3,6.6,7.5.4,17.8-6.2,10.1-8.7,12.6-19.5,7-10.8-5.6-53.3-33.6-53.3-33.6,0,0-9.1-5.4-1-15.7h0Z"/>
    <path class="st16" d="M962.2,139s-20.5-59.5,5.2-62.4c6.8-.8,10.8,2.9,10.8,2.9,0,0,20.7-33.1,40.6-28.2,5,1.2,8.3,4.8,9.1,9.7,12.2-3.1,21.8,10.8,18.9,15.7,6.8,0,20.3,9.3,10.1,23.6,0,0,12.4,16.2-1.2,28.6-11.2,10.2-14.1,14.1-41.4,23.8s-7.9,7-11.2,9.1c-3.3,2.1-7.2,2.9-24.5-7.3-11-6.4-16.4-15.5-16.4-15.5v.2Z"/>
    <g>
      <polygon class="st16" points="689.3 245.1 667 276.6 713.6 338.5 783.4 303.7 783.4 245.1 689.3 245.1"/>
      <g class="st12">
        <path class="st5" d="M690,252.3s11.6,33.6,57.4,34.4c0,0-1.5,9.5-10.1,16.4-8.5,7-33.1,36-33.1,36l43.1,1,40.4-33.2-3.3-57.8-107.5-3.1,13.1,6.2-.2.2Z"/>
      </g>
    </g>
    <path class="st13" d="M797.1,271.6s10.1,14.9,6.8,31.9c-3.9,19.3-23.2,41.2-62.2,41.6-73.6.8-122.7-22-110.6-73.6l16.4-1.7,19.7,7s18.2,17.2,23.6,23.6c5.4,6.4,23,32.5,23,32.5l9.7,1.4s14.1-10.8,33.1-21.8c18.9-11,27.1-12.2,27.1-12.2v-22l13.7-6.6-.2.2Z"/>
    <ellipse class="st14" cx="716.2" cy="338.7" rx="9.3" ry="23.6" transform="translate(317.6 1023.3) rotate(-85.1)"/>
    <path class="st16" d="M741.2,57.8c-60.3,0-103.8,53-93.4,132.6,10.4,79.6,38.9,74.2,51.2,79.4,29.6,12.6,61.1,6.2,81.4-5.8,20.3-12,38.3-45.6,44.3-78.5,16.4-89.7-37.7-127.8-83.3-127.8h-.2Z"/>
    <path class="st5" d="M731.6,183.1l-8.3,20.7c-1.7,4.4,1.5,9.1,6.4,9.1h18.4c4.4,0,7.5-3.9,6.8-8.1l-4.6-21.5c-.8-3.5-4.1-5.6-7.7-5.2l-5.2.8c-2.5.4-4.4,1.9-5.4,4.1l-.2.2Z"/>
    <g>
      <path class="st11" d="M661.4,147.5c16-21.8,65.3-1.2,78.9-1.5s37.7-7.9,55.5-6.2,33.8,16,20.3,44.3c-13.5,28.2-52.4,2.5-73.4,2.1-21.1-.4-36,14.1-60.9,12.6s-36.5-29.6-20.3-51.4v.2Z"/>
      <ellipse class="st7" cx="695.4" cy="168.2" rx="22.4" ry="13.1"/>
      <ellipse class="st7" cx="781.5" cy="168.2" rx="22.4" ry="13.1"/>
    </g>
    <path class="st2" d="M709.9,230.1s4.8,7.7,16,6"/>
    <path class="st2" d="M709.9,134s-7.3-9.7-22-5.8"/>
    <path class="st2" d="M792.3,128s-11.2-4.4-21.8,6.2"/>
    <path class="st4" d="M403.2,810.3s44.8-74.6,53.3-134.9c8.5-60.3,1.4-11.6,1.4-17.2"/>
    <path class="st4" d="M478.8,666.1s-9.7,6.2-22.2,9.1"/>
    <path class="st4" d="M280.6,796.4s-5.4-93.2,5.8-135.9"/>
    <path class="st3" d="M238.7,831s-4.3-21.1,1.4-48.9"/>
    <path class="st1" d="M537.7,393.6"/>
    <path class="st1" d="M443.8,444.8"/>
    <path class="st1" d="M546.8,399.8"/>
    <path class="st6" d="M371.3,534.5c-3.3,8.5-2.7,15.5-16,12.2-12.4-2.9-42.7-16.2-57.6-21.6-3.5-1.4-6.4-4.4-3.5-12,2.9-7.5,5.4-11.8,15.5-9.1s38.7,12.8,52.6,16.6c4.1,1.2,13.7,1.9,9.1,13.9h0Z"/>
    <path class="st16" d="M351.6,532.6s-2.5,6.4.4,12c8.5,17,27.8,49.3,8.7,56.1-6.8,2.3-11.6-.4-11.6-.4,0,0-13.3,38.7-35,38.3-5.4,0-6.8-6.2-11.6-7.7-11.6,6-25.1-7.5-24.2-9.7,0,0-21.6-6.8-14.5-24,0,0-14.5-12.2-3.5-28,11-15.8,13.1-19.1,38.9-35.6,25.7-16.4,8.3-15.1,8.3-15.1,0,0,3.5-1.5,23.8,4.8,20.3,6.4,20.5,9.1,20.5,9.1l-.2.2Z"/>
    <path class="st8" d="M1006.8,112.7s-2.3,3.9,3.1,8.5c5.4,4.6,7.9,3.5,12.6,1.4,0,0-1.5,2.7,2.9,7.3s18.2,1.2,18.2,1.2c0,0-28,16.4-39.2,8.3-11.2-8.1-12.8-14.5-17.8-4.6,0,0,1.4-14.3-10.8-23.4-12.2-9.1-6-3.9-4.4-8.3,2.7,5.8,23.8,20.5,35.4,9.7h.2Z"/>
    <path class="st8" d="M1021.7,69.6s-19.1,20.3-21.8,22.4c0,0,19.9-16,21.8-22.4Z"/>
    <path class="st6" d="M979.2,80.8s19.5,16.2,21.6,18.7c0,0-15.5-17-21.6-18.7h0Z"/>
    <path class="st8" d="M1035.4,83.2s-19.1,20.3-21.8,22.4c0,0,19.9-16,21.8-22.4Z"/>
    <path class="st8" d="M1050.7,101.3s-22.2,16.6-25.3,18.4c0,0,22.4-12.2,25.3-18.4Z"/>
  </g>
</svg>