<?xml version="1.0" encoding="UTF-8"?>
<svg id="Layer_2" data-name="Layer 2" xmlns="http://www.w3.org/2000/svg" xmlns:xlink="http://www.w3.org/1999/xlink" viewBox="0 0 1182.5 868.63">
  <defs>
    <clipPath id="clippath">
      <path d="M884.08,90.75l60.31,38.46-206.24,248.57s-80.21,113.27-176.08,165.84c0,0-19.52,4.45-27.45,33.63-7.92,29.19-30.73,130.47-193.48,182.27,0,0-121.38,231.36-163.33,20.29,0,0-46.97,16.04-72.1,18.94,0,0-15.27-28.41-15.27-52.96,0,0,108.82-121.38,134.91-129.89,0,0,35.95-144,137.81-167.77,0,0,13.14-35.56,34.4-62.43,21.26-26.87,62.04-57.79,62.04-57.79l-96.45,61.27s-33.05,54.31-64.56,95.29l-61.46-20.1s34.98-105.15,69-136.46c34.02-31.31,131.82-115.2,227.3-111.91,0,0,38.66,5.03,71.71,9.86l116.16,4.06s54.31-31.7,98.38-77.7c44.07-46,64.56-61.46,64.56-61.46h-.19Z" fill="none"/>
    </clipPath>
    <clipPath id="clippath-1">
      <polygon points="627.2 194.35 604.97 225.85 651.56 287.7 721.33 252.91 721.33 194.35 627.2 194.35" fill="none"/>
    </clipPath>
  </defs>
  <path d="M752.84,119.93s9.47-16.43,24.35-10.24c14.88,6.19,18.56,42.72-7.92,62.24-26.48,19.52-33.44-5.61-33.44-5.61l17.01-46.2v-.19Z" fill="#8e6728"/>
  <path d="M598.21,120.32s-9.47-16.43-24.35-10.24c-14.88,6.19-18.56,42.72,7.92,62.24,26.48,19.52,33.44-5.61,33.44-5.61l-17.01-46.2v-.19Z" fill="#8e6728"/>
  <path d="M748,332.55s-37.11,153.47-34.79,249.34c1.93,74.22-52.57,169.32-77.31,208.55-7.15,11.4-20.1,17.98-33.44,17.2-60.11-3.48-226.72-18.75-256.1-85.43-29.38-66.68-277.75-94.71-300.75-94.71s-45.81-7.15-19.52-39.62c26.29-32.47,76.73-39.62,107.85-91.23s196.76-121.77,196.76-121.77l142.64-86.98,274.66,44.65h0Z" fill="#a61f23"/>
  <path d="M.57,844.37s3.09-29.96,44.65-67.46c34.98-31.89,45.04-31.12,45.04-31.12" fill="#ffe712"/>
  <path d="M524.18,229.33s52.19-29.19,136.85-20.29c84.66,8.89,104.18,22.61,104.18,22.61l-19.91,24.74-215.9-11.4-5.22-15.66Z" fill="#a61f23"/>
  <g>
    <path d="M884.08,90.75l60.31,38.46-206.24,248.56s-80.21,113.27-176.08,165.84c0,0-19.52,4.45-27.45,33.63-7.92,29.19-30.73,130.47-193.48,182.27,0,0-121.38,231.36-163.33,20.29,0,0-46.97,16.04-72.1,18.94,0,0-15.27-28.41-15.27-52.96,0,0,108.82-121.38,134.91-129.89,0,0,35.95-144,137.81-167.77,0,0,13.14-35.56,34.4-62.43,21.26-26.87,62.04-57.79,62.04-57.79l-96.45,61.27s-33.05,54.31-64.56,95.29l-61.46-20.1s34.98-105.15,69-136.46c34.02-31.31,131.82-115.2,227.3-111.91,0,0,38.66,5.03,71.71,9.86l116.16,4.06s54.31-31.7,98.38-77.7c44.07-46,64.56-61.46,64.56-61.46h-.19Z" fill="#e82f2d"/>
    <g clip-path="url(#clippath)">
      <g>
        <path d="M296.3,348.59c14.3-18.56,31.7-34.4,50.06-48.9,47.16-37.3,101.09-66.3,158.11-85.63-34.21-.19-68.04,9.66-98.77,24.55-30.73,15.08-58.76,34.98-85.63,56.25-15.46,12.18-30.54,24.93-42.52,40.59-13.14,17.2-21.84,37.3-30.35,57.21-5.61,12.95-11.02,25.9-14.69,39.62-1.35,5.22-2.51,11.02-.58,16.04,1.35,3.09,6.38,8.5,10.44,6.76s3.87-8.12,5.03-10.82c4.25-11.21,8.7-22.61,13.53-33.63,9.47-21.84,20.49-43.3,35.18-62.24l.19.19Z" fill="#ffe712"/>
        <path d="M241.02,572.03c18.75-50.83,59.34-91.62,105.34-120.22,3.87-2.32,8.31-6.57,6.19-10.44-1.93-3.67-47.35,35.37-51.22,36.92-45.04,17.78-43.68,13.92-66.68,56.63-16.24,30.35-13.53,49.09-13.34,83.5.19,34.4-6.19,62.82-4.06,56.63,2.13-6.19,5.61-28.22,6.57-34.79,2.51-21.07,10.05-48.13,17.4-68.04l-.19-.19Z" fill="#ffe712"/>
        <path d="M752.45,215.03c43.3-29.77,81.76-66.68,113.27-108.63-11.21,5.03-21.07,12.56-30.35,20.49-19.72,16.43-38.08,34.21-56.44,51.99-9.66,9.28-19.33,18.75-28.99,28.03-9.66,9.28-13.72,11.6-12.95,13.34,1.74,3.67,13.92-4.25,15.66-5.41l-.19.19Z" fill="#ffe712"/>
      </g>
    </g>
  </g>
  <ellipse cx="598.94" cy="413.69" rx="63.01" ry="27.83" transform="translate(-117.1 544.68) rotate(-45)" fill="#ffe712"/>
  <path d="M374.77,421.07s46.2,121.96,169.51,135.49l-8.5,16.43s-109.79,10.63-172.99-125.06l11.79-26.87h.19Z" fill="#ffe712"/>
  <ellipse cx="623.94" cy="307.65" rx="30.73" ry="11.21" transform="translate(-56.14 454.11) rotate(-38.4)" fill="#84161d"/>
  <ellipse cx="675.61" cy="310.37" rx="11.21" ry="28.61" transform="translate(-67.87 313.31) rotate(-24.9)" fill="#84161d"/>
  <path d="M117.31,752.94s-5.41-40.2,45.04-91.23c51.61-51.99,58.95-43.49,58.95-43.49l-103.99,134.53v.19Z" fill="#ffe712"/>
  <path d="M183.8,736.32s31.12-90.07,37.5-117.9c0,0-92.97,56.63-103.41,129.5-4.83,33.63,23.39,33.25,44.07,19.72,10.63-6.96,20.29-25.13,22.03-31.12l-.19-.19Z" fill="#771315"/>
  <path d="M105.52,798.75s-44.07,68.62-91.04,63.59c-46.97-5.03,31.51-91.04,75.77-116.55,0,0,15.27,52.96,15.27,52.96Z" fill="#771315"/>
  <path d="M880.6,81.66s5.41-14.11,19.91-7.15c14.5,6.96,37.69,22.03,53.54,31.7,8.77,5.35,6.57,7.54.39,17.78-6.19,10.05-8.7,12.56-19.52,6.96-10.82-5.61-53.35-33.63-53.35-33.63,0,0-9.08-5.41-.97-15.66h0Z" fill="#ffe712"/>
  <path d="M900.12,88.23s-20.49-59.53,5.22-62.43c6.76-.77,10.82,2.9,10.82,2.9,0,0,20.68-33.05,40.59-28.22,5.03,1.16,8.31,4.83,9.08,9.66,12.18-3.09,21.84,10.82,18.94,15.66,6.76,0,20.29,9.28,10.05,23.58,0,0,12.37,16.24-1.16,28.61-11.21,10.24-14.11,14.11-41.36,23.77s-7.92,6.96-11.21,9.08c-3.29,2.13-7.15,2.9-24.55-7.34-11.02-6.38-16.43-15.46-16.43-15.46v.19Z" fill="#d3932a"/>
  <g>
    <polygon points="627.2 194.35 604.97 225.85 651.56 287.7 721.33 252.91 721.33 194.35 627.2 194.35" fill="#d3932a"/>
    <g clip-path="url(#clippath-1)">
      <path d="M627.97,201.5s11.6,33.63,57.41,34.4c0,0-1.55,9.47-10.05,16.43-8.5,6.96-33.05,35.95-33.05,35.95l43.1.97,40.4-33.25-3.29-57.79-107.47-3.09,13.14,6.19-.19.19Z" fill="#8e6728"/>
    </g>
  </g>
  <path d="M735.05,220.83s10.05,14.88,6.76,31.89c-3.87,19.33-23.19,41.17-62.24,41.56-73.64.77-122.74-22.03-110.56-73.64l16.43-1.74,19.72,6.96s18.17,17.2,23.58,23.58c5.41,6.38,23,32.47,23,32.47l9.66,1.35s14.11-10.82,33.05-21.84c18.94-11.02,27.06-12.18,27.06-12.18v-22.03l13.72-6.57-.19.19Z" fill="#a61f23"/>
  <ellipse cx="654.18" cy="287.88" rx="9.28" ry="23.58" transform="translate(311.48 915.08) rotate(-85.1)" fill="#680f19"/>
  <path d="M679.2,7.05c-60.31,0-103.79,52.96-93.36,132.59,10.44,79.63,38.85,74.22,51.22,79.44,29.57,12.56,61.08,6.19,81.37-5.8,20.29-11.98,38.27-45.62,44.26-78.47,16.43-89.68-37.69-127.76-83.31-127.76h-.19Z" fill="#d3932a"/>
  <path d="M669.53,132.3l-8.31,20.68c-1.74,4.45,1.55,9.08,6.38,9.08h18.36c4.45,0,7.54-3.87,6.76-8.12l-4.64-21.45c-.77-3.48-4.06-5.61-7.73-5.22l-5.22.77c-2.51.39-4.45,1.93-5.41,4.06l-.19.19Z" fill="#8e6728"/>
  <g>
    <path d="M599.37,96.74c16.04-21.84,65.33-1.16,78.86-1.55s37.69-7.92,55.47-6.19,33.82,16.04,20.29,44.26c-13.53,28.22-52.38,2.51-73.45,2.13-21.07-.39-35.95,14.11-60.88,12.56s-36.53-29.57-20.29-51.41v.19Z" fill="#1d4443"/>
    <ellipse cx="633.39" cy="117.42" rx="22.42" ry="13.14" fill="#f6fbfc"/>
    <ellipse cx="719.4" cy="117.42" rx="22.42" ry="13.14" fill="#f6fbfc"/>
  </g>
  <path d="M647.88,179.27s4.83,7.73,16.04,5.99" fill="none" stroke="#8e6728" stroke-linecap="round" stroke-miterlimit="10" stroke-width="4.83"/>
  <path d="M647.88,83.21s-7.34-9.66-22.03-5.8" fill="none" stroke="#8e6728" stroke-linecap="round" stroke-miterlimit="10" stroke-width="4.83"/>
  <path d="M730.22,77.22s-11.21-4.45-21.84,6.19" fill="none" stroke="#8e6728" stroke-linecap="round" stroke-miterlimit="10" stroke-width="4.83"/>
  <path d="M341.14,759.51s44.84-74.61,53.35-134.91c8.5-60.31,1.35-11.6,1.35-17.2" fill="none" stroke="#a61f23" stroke-linecap="round" stroke-miterlimit="10" stroke-width="3.87"/>
  <path d="M416.71,615.32s-9.66,6.19-22.23,9.08" fill="none" stroke="#a61f23" stroke-linecap="round" stroke-miterlimit="10" stroke-width="3.87"/>
  <path d="M218.6,745.6s-5.41-93.16,5.8-135.88" fill="none" stroke="#a61f23" stroke-linecap="round" stroke-miterlimit="10" stroke-width="3.87"/>
  <path d="M176.65,780.2s-4.25-21.07,1.35-48.9" fill="none" stroke="#771315" stroke-miterlimit="10" stroke-width="3.87"/>
  <path d="M309.25,483.7c-3.29,8.5-2.71,15.46-16.04,12.18-12.37-2.9-42.72-16.24-57.6-21.65-3.48-1.35-6.38-4.45-3.48-11.98,2.9-7.54,5.41-11.79,15.46-9.08s38.66,12.76,52.57,16.62c4.06,1.16,13.72,1.93,9.08,13.92h0Z" fill="#ffe712"/>
  <path d="M289.53,481.87s-2.51,6.38.39,11.98c8.5,17.01,27.83,49.29,8.7,56.05-6.76,2.32-11.6-.39-11.6-.39,0,0-13.34,38.66-34.98,38.27-5.41,0-6.76-6.19-11.6-7.73-11.6,5.99-25.13-7.54-24.16-9.66,0,0-21.65-6.76-14.5-23.97,0,0-14.5-12.18-3.48-28.03,11.02-15.85,13.14-19.14,38.85-35.56,25.71-16.43,8.31-15.08,8.31-15.08,0,0,3.48-1.55,23.77,4.83,20.29,6.38,20.49,9.08,20.49,9.08l-.19.19Z" fill="#d3932a"/>
  <path d="M944.77,61.95s-2.32,3.87,3.09,8.5c5.41,4.64,7.92,3.48,12.56,1.35,0,0-1.55,2.71,2.9,7.34s18.17,1.16,18.17,1.16c0,0-28.03,16.43-39.24,8.31-11.21-8.12-12.76-14.5-17.78-4.64,0,0,1.35-14.3-10.82-23.39-12.18-9.08-5.99-3.87-4.45-8.31,2.71,5.8,23.77,20.49,35.37,9.66h.19Z" fill="#8d6829"/>
  <path d="M959.65,18.84s-19.14,20.29-21.84,22.42c0,0,19.91-16.04,21.84-22.42Z" fill="#8d6829"/>
  <path d="M917.13,30.06s19.52,16.24,21.65,18.75c0,0-15.46-17.01-21.65-18.75h0Z" fill="#ffe712"/>
  <path d="M973.38,32.37s-19.14,20.29-21.84,22.42c0,0,19.91-16.04,21.84-22.42Z" fill="#8d6829"/>
  <path d="M988.65,50.54s-22.23,16.62-25.32,18.36c0,0,22.42-12.18,25.32-18.36Z" fill="#8d6829"/>
</svg>