<?xml version="1.0" encoding="UTF-8"?>
<svg id="Layer_2" data-name="Layer 2" xmlns="http://www.w3.org/2000/svg" xmlns:xlink="http://www.w3.org/1999/xlink" viewBox="0 0 5005.76 4348.15">
  <defs>
    <clipPath id="clippath">
      <path d="M4425.48,454.26l301.87,192.54-1032.36,1244.26s-401.53,566.98-881.43,830.15c0,0-97.72,22.25-137.39,168.35-39.67,146.1-153.84,653.09-968.51,912.39,0,0-607.61,1158.14-817.57,101.59,0,0-235.11,80.31-360.89,94.82,0,0-76.44-142.23-76.44-265.11,0,0,544.72-607.61,675.34-650.19,0,0,179.96-720.82,689.86-839.82,0,0,65.79-178.03,172.22-312.52,106.43-134.49,310.58-289.29,310.58-289.29l-482.8,306.71s-165.45,271.88-323.16,477l-307.68-100.62s175.12-526.34,345.41-683.08c170.29-156.74,659.86-576.65,1137.83-560.21,0,0,193.51,25.16,358.96,49.34l581.49,20.32s271.88-158.68,492.48-388.95c220.6-230.27,323.16-307.68,323.16-307.68h-.97Z" fill="none"/>
    </clipPath>
    <clipPath id="clippath-1">
      <polygon points="3139.62 972.86 3028.35 1130.57 3261.53 1440.18 3610.81 1266.02 3610.81 972.86 3139.62 972.86" fill="none"/>
    </clipPath>
  </defs>
  <path d="M3768.52,600.35s47.41-82.24,121.91-51.28c74.5,30.96,92.88,213.83-39.67,311.55-132.55,97.72-167.38-28.06-167.38-28.06l85.14-231.24v-.97Z" fill="#8e6728"/>
  <path d="M2994.49,602.29s-47.41-82.24-121.91-51.28c-74.5,30.96-92.88,213.83,39.67,311.55,132.55,97.72,167.38-28.06,167.38-28.06l-85.14-231.24v-.97Z" fill="#8e6728"/>
  <path d="M3744.33,1664.65s-185.77,768.23-174.16,1248.13c9.68,371.54-263.17,847.56-387.02,1043.98-35.8,57.08-100.62,89.98-167.38,86.11-300.9-17.42-1134.92-93.85-1281.99-427.65-147.07-333.8-1390.35-474.09-1505.49-474.09s-229.31-35.8-97.72-198.35c131.59-162.55,384.11-198.35,539.89-456.68,155.77-258.33,984.96-609.55,984.96-609.55l714.04-435.39,1374.87,223.5h0Z" fill="#a61f23"/>
  <path d="M2.86,4226.69s15.48-149.97,223.5-337.67c175.12-159.64,225.44-155.77,225.44-155.77" fill="#ffe712"/>
  <path d="M2623.92,1147.98s261.24-146.1,685.02-101.59c423.78,44.51,521.5,113.2,521.5,113.2l-99.66,123.85-1080.74-57.08-26.12-78.37Z" fill="#a61f23"/>
  <g>
    <path d="M4425.48,454.26l301.87,192.54-1032.36,1244.26s-401.53,566.98-881.43,830.15c0,0-97.72,22.25-137.39,168.35-39.67,146.1-153.84,653.09-968.51,912.39,0,0-607.61,1158.14-817.57,101.59,0,0-235.11,80.31-360.89,94.82,0,0-76.44-142.23-76.44-265.11,0,0,544.72-607.61,675.34-650.19,0,0,179.96-720.82,689.86-839.82,0,0,65.79-178.03,172.22-312.52,106.43-134.49,310.58-289.29,310.58-289.29l-482.8,306.71s-165.45,271.88-323.16,477l-307.68-100.62s175.12-526.34,345.41-683.08c170.29-156.74,659.86-576.65,1137.83-560.21,0,0,193.51,25.16,358.96,49.34l581.49,20.32s271.88-158.68,492.48-388.95c220.6-230.27,323.16-307.68,323.16-307.68h-.97Z" fill="#e82f2d"/>
    <g clip-path="url(#clippath)">
      <g>
        <path d="M1483.19,1744.95c71.6-92.88,158.68-172.22,250.59-244.79,236.08-186.74,506.02-331.87,791.45-428.62-171.25-.97-340.57,48.38-494.41,122.88-153.84,75.47-294.13,175.12-428.62,281.55-77.4,60.96-152.87,124.81-212.86,203.18-65.79,86.11-109.33,186.74-151.9,286.39-28.06,64.83-55.15,129.65-73.53,198.35-6.77,26.12-12.58,55.15-2.9,80.31,6.77,15.48,31.93,42.57,52.25,33.86,20.32-8.71,19.35-40.64,25.16-54.18,21.29-56.12,43.54-113.2,67.73-168.35,47.41-109.33,102.56-216.73,176.09-311.55l.97.97Z" fill="#ffe712"/>
        <path d="M1206.47,2863.43c93.85-254.46,297.03-458.61,527.31-601.81,19.35-11.61,41.6-32.9,30.96-52.25-9.68-18.38-237.05,177.06-256.4,184.8-225.44,89.01-218.66,69.66-333.8,283.49-81.27,151.9-67.73,245.75-66.76,417.98.97,172.22-30.96,314.45-20.32,283.49,10.64-30.96,28.06-141.26,32.9-174.16,12.58-105.46,50.31-240.92,87.08-340.57l-.97-.97Z" fill="#ffe712"/>
        <path d="M3766.58,1076.38c216.73-149,409.27-333.8,566.98-543.76-56.12,25.16-105.46,62.89-151.9,102.56-98.69,82.24-190.61,171.25-282.52,260.27-48.38,46.44-96.75,93.85-145.13,140.29-48.38,46.44-68.7,58.05-64.83,66.76,8.71,18.38,69.66-21.29,78.37-27.09l-.97.97Z" fill="#ffe712"/>
      </g>
    </g>
  </g>
  <ellipse cx="2998.15" cy="2070.84" rx="315.42" ry="139.33" transform="translate(-586.17 2726.54) rotate(-45)" fill="#ffe712"/>
  <path d="M1876.01,2107.78s231.24,610.52,848.53,678.25l-42.57,82.24s-549.56,53.21-865.95-626l59.02-134.49h.97Z" fill="#ffe712"/>
  <ellipse cx="3123.29" cy="1540.04" rx="153.84" ry="56.12" transform="translate(-281.01 2273.15) rotate(-38.4)" fill="#84161d"/>
  <ellipse cx="3381.94" cy="1553.64" rx="56.12" ry="143.2" transform="translate(-339.77 1568.34) rotate(-24.9)" fill="#84161d"/>
  <path d="M587.25,3769.05s-27.09-201.25,225.44-456.68c258.33-260.27,295.1-217.7,295.1-217.7l-520.54,673.41v.97Z" fill="#ffe712"/>
  <path d="M920.08,3685.84s155.77-450.87,187.7-590.2c0,0-465.39,283.49-517.63,648.25-24.19,168.35,117.07,166.42,220.6,98.69,53.21-34.83,101.59-125.78,110.3-155.77l-.97-.97Z" fill="#771315"/>
  <path d="M528.23,3998.35s-220.6,343.48-455.71,318.32c-235.11-25.16,157.71-455.71,379.28-583.43,0,0,76.44,265.11,76.44,265.11Z" fill="#771315"/>
  <path d="M4408.06,408.78s27.09-70.63,99.66-35.8c72.57,34.83,188.67,110.3,268.01,158.68,43.89,26.76,32.9,37.73,1.94,89.01-30.96,50.31-43.54,62.89-97.72,34.83-54.18-28.06-267.04-168.35-267.04-168.35,0,0-45.47-27.09-4.84-78.37h0Z" fill="#ffe712"/>
  <path d="M4505.78,441.68s-102.56-298,26.12-312.52c33.86-3.87,54.18,14.51,54.18,14.51,0,0,103.53-165.45,203.18-141.26,25.16,5.81,41.6,24.19,45.47,48.38,60.95-15.48,109.33,54.18,94.82,78.37,33.86,0,101.59,46.44,50.31,118.04,0,0,61.92,81.27-5.81,143.2-56.12,51.28-70.63,70.63-207.05,119.01-136.42,48.38-39.67,34.83-56.12,45.47-16.45,10.64-35.8,14.51-122.88-36.77-55.15-31.93-82.24-77.4-82.24-77.4v.97Z" fill="#d3932a"/>
  <g>
    <polygon points="3139.62 972.86 3028.35 1130.57 3261.53 1440.18 3610.81 1266.02 3610.81 972.86 3139.62 972.86" fill="#d3932a"/>
    <g clip-path="url(#clippath-1)">
      <path d="M3143.49,1008.66s58.05,168.35,287.36,172.22c0,0-7.74,47.41-50.31,82.24-42.57,34.83-165.45,179.96-165.45,179.96l215.76,4.84,202.22-166.42-16.45-289.29-537.95-15.48,65.79,30.96-.97.97Z" fill="#8e6728"/>
    </g>
  </g>
  <path d="M3679.51,1105.41s50.31,74.5,33.86,159.64c-19.35,96.75-116.1,206.09-311.55,208.02-368.63,3.87-614.39-110.3-553.43-368.63l82.24-8.71,98.69,34.83s90.95,86.11,118.04,118.04c27.09,31.93,115.14,162.55,115.14,162.55l48.38,6.77s70.63-54.18,165.45-109.33c94.82-55.15,135.46-60.96,135.46-60.96v-110.3l68.7-32.9-.97.97Z" fill="#a61f23"/>
  <ellipse cx="3274.67" cy="1441.04" rx="46.44" ry="118.04" transform="translate(1559.18 4580.65) rotate(-85.1)" fill="#680f19"/>
  <path d="M3399.89,35.31c-301.87,0-519.57,265.11-467.32,663.73,52.25,398.63,194.48,371.54,256.4,397.66,148.03,62.89,305.74,30.96,407.33-29.03,101.59-59.99,191.57-228.34,221.57-392.82,82.24-448.94-188.67-639.54-417.01-639.54h-.97Z" fill="#d3932a"/>
  <path d="M3351.51,662.28l-41.6,103.53c-8.71,22.25,7.74,45.47,31.93,45.47h91.92c22.25,0,37.73-19.35,33.86-40.64l-23.22-107.4c-3.87-17.42-20.32-28.06-38.7-26.12l-26.12,3.87c-12.58,1.94-22.25,9.68-27.09,20.32l-.97.97Z" fill="#8e6728"/>
  <g>
    <path d="M3000.29,484.25c80.31-109.33,327.03-5.81,394.76-7.74,67.73-1.94,188.67-39.67,277.68-30.96,89.01,8.71,169.32,80.31,101.59,221.57-67.73,141.26-262.2,12.58-367.67,10.64-105.46-1.94-179.96,70.63-304.77,62.89-124.81-7.74-182.86-148.03-101.59-257.37v.97Z" fill="#1d4443"/>
    <ellipse cx="3170.58" cy="587.78" rx="112.23" ry="65.79" fill="#f6fbfc"/>
    <ellipse cx="3601.13" cy="587.78" rx="112.23" ry="65.79" fill="#f6fbfc"/>
  </g>
  <path d="M3243.15,897.39s24.19,38.7,80.31,29.99" fill="none" stroke="#8e6728" stroke-linecap="round" stroke-miterlimit="10" stroke-width="24.19"/>
  <path d="M3243.15,416.52s-36.77-48.38-110.3-29.03" fill="none" stroke="#8e6728" stroke-linecap="round" stroke-miterlimit="10" stroke-width="24.19"/>
  <path d="M3655.32,386.53s-56.12-22.25-109.33,30.96" fill="none" stroke="#8e6728" stroke-linecap="round" stroke-miterlimit="10" stroke-width="24.19"/>
  <path d="M1707.66,3801.94s224.47-373.47,267.04-675.34c42.57-301.87,6.77-58.05,6.77-86.11" fill="none" stroke="#a61f23" stroke-linecap="round" stroke-miterlimit="10" stroke-width="19.35"/>
  <path d="M2085.97,3080.16s-48.38,30.96-111.27,45.47" fill="none" stroke="#a61f23" stroke-linecap="round" stroke-miterlimit="10" stroke-width="19.35"/>
  <path d="M1094.24,3732.28s-27.09-466.35,29.03-680.18" fill="none" stroke="#a61f23" stroke-linecap="round" stroke-miterlimit="10" stroke-width="19.35"/>
  <path d="M884.28,3905.47s-21.29-105.46,6.77-244.79" fill="none" stroke="#771315" stroke-miterlimit="10" stroke-width="19.35"/>
  <path d="M1548.02,2421.26c-16.45,42.57-13.55,77.4-80.31,60.95-61.92-14.51-213.83-81.27-288.33-108.36-17.42-6.77-31.93-22.25-17.42-59.99,14.51-37.73,27.09-59.02,77.4-45.47,50.31,13.55,193.51,63.86,263.17,83.21,20.32,5.81,68.7,9.68,45.47,69.66h0Z" fill="#ffe712"/>
  <path d="M1449.33,2412.12s-12.58,31.93,1.94,59.99c42.57,85.14,139.33,246.72,43.54,280.59-33.86,11.61-58.05-1.94-58.05-1.94,0,0-66.76,193.51-175.12,191.57-27.09,0-33.86-30.96-58.05-38.7-58.05,29.99-125.78-37.73-120.94-48.38,0,0-108.36-33.86-72.57-119.97,0,0-72.57-60.95-17.42-140.29,55.15-79.34,65.79-95.79,194.48-178.03,128.68-82.24,41.6-75.47,41.6-75.47,0,0,17.42-7.74,119.01,24.19,101.59,31.93,102.56,45.47,102.56,45.47l-.97.97Z" fill="#d3932a"/>
  <path d="M4729.29,310.09s-11.61,19.35,15.48,42.57c27.09,23.22,39.67,17.42,62.89,6.77,0,0-7.74,13.55,14.51,36.77,22.25,23.22,90.95,5.81,90.95,5.81,0,0-140.29,82.24-196.41,41.6-56.12-40.64-63.86-72.57-89.01-23.22,0,0,6.77-71.6-54.18-117.07-60.96-45.47-29.99-19.35-22.25-41.6,13.55,29.03,119.01,102.56,177.06,48.38h.97Z" fill="#8d6829"/>
  <path d="M4803.79,94.33s-95.79,101.59-109.33,112.23c0,0,99.66-80.31,109.33-112.23Z" fill="#8d6829"/>
  <path d="M4590.93,150.45s97.72,81.27,108.36,93.85c0,0-77.4-85.14-108.36-93.85h0Z" fill="#ffe712"/>
  <path d="M4872.48,162.06s-95.79,101.59-109.33,112.23c0,0,99.66-80.31,109.33-112.23Z" fill="#8d6829"/>
  <path d="M4948.92,253.01s-111.27,83.21-126.75,91.92c0,0,112.23-60.96,126.75-91.92Z" fill="#8d6829"/>
</svg>