<?xml version="1.0" encoding="UTF-8"?>
<svg id="cover" xmlns="http://www.w3.org/2000/svg" viewBox="0 0 469.82 636.14">
  <path d="M18.25,592.19c0,.7-.01,1.39-.01,2.05.03,2.32.07,4.01,1.14,6.53.32.69.7,1.39,1.14,2.1,1.57,2.56,3.81,5.1,6.24,7.22,2.34,2.02,4.86,3.66,7.15,4.54,2.92,1.05,5.47.91,8.41.95,83.86-.24,238.56.17,328.24,0,11.39.03,21.89-.03,32.86,0,11.03.06,19.54.76,29.14-5.49,10.91-6.68,19.51-20.03,18.83-32.23-.96-136.45,1.83-458.13-1.01-518.16-3.68-13.72-15.19-23.77-30.31-26.89-7.98-1.94-16.46-2.87-24.69-3.71-97.75-10.68-195.5-10.14-293.63-5.16-28.69,1.24-72.21,2.1-82.28,34.88l-.03.09c-1.2,4.07-1.18,6.39-1.2,9.98.5,37.05-.36,173.46,0,238-.33,69.73.18,220.28.04,278.08-.01,2.6-.02,5.01-.03,7.22Z" fill="#da8544"/>
  <path d="M18.24,594.24c.03,2.32.07,4.01,1.14,6.53.32.69.7,1.39,1.14,2.1h397.37c7.24,0,13.12-4.01,13.12-8.94,0-2.48-1.47-4.71-3.84-6.34-2.38-1.62-5.66-2.62-9.28-2.62H18.28c-.01,2.6-.02,5.01-.03,7.22,0,.7-.01,1.39-.01,2.05Z" fill="#eab275"/>
</svg>