<?xml version="1.0" encoding="UTF-8"?>
<svg id="Layer_1" data-name="Layer 1" xmlns="http://www.w3.org/2000/svg" viewBox="0 0 108.54 84.04">
  <g>
    <path d="M66.5,76.04c-4.78,0-8.67-3.88-8.67-8.66v-3.44l-40.3,4.54c-.33.04-.65.05-.97.05-2.3,0-4.46-.89-6.1-2.51-1.65-1.64-2.56-3.82-2.56-6.14V24.11c0-4.77,3.88-8.66,8.65-8.66.32,0,.65.02.97.05l40.3,4.54v-3.44c0-4.78,3.89-8.66,8.67-8.66,2.3,0,4.47.9,6.11,2.54l25.39,25.39c1.63,1.63,2.54,3.81,2.54,6.12s-.9,4.49-2.54,6.12l-25.39,25.39c-1.63,1.64-3.8,2.54-6.11,2.54Z" fill="#fff0e1"/>
    <path d="M66.5,14.92c.41,0,.83.15,1.18.5l25.39,25.39c.66.66.66,1.72,0,2.38l-25.39,25.39c-.34.34-.76.5-1.18.5-.86,0-1.69-.67-1.69-1.68v-9.37c0-.94-.76-1.68-1.68-1.68-.06,0-.13,0-.19.01l-46.19,5.2c-.06,0-.13.01-.19.01-.91,0-1.68-.74-1.68-1.68V24.11c0-.94.76-1.68,1.68-1.68.06,0,.13,0,.19.01l46.19,5.2c.06,0,.13.01.19.01.91,0,1.68-.74,1.68-1.68v-9.37c0-1.01.83-1.68,1.69-1.68M66.5.96c-7.14,0-13.17,4.8-15.04,11.34l-33.15-3.73c-.58-.07-1.17-.1-1.75-.1C7.94,8.48.92,15.49.92,24.11v35.76c0,8.62,7.01,15.63,15.63,15.63.58,0,1.17-.03,1.75-.1l33.15-3.73c1.87,6.54,7.91,11.34,15.04,11.34,4.17,0,8.09-1.63,11.04-4.58l25.39-25.39c6.09-6.1,6.09-16.01,0-22.11l-25.39-25.39c-2.95-2.95-6.88-4.58-11.04-4.58h0Z" fill="#fa5330"/>
  </g>
  <g>
    <path d="M66.5,71.68c-2.38,0-4.31-1.93-4.31-4.3v-8.32l-45.15,5.08c-.16.02-.32.03-.48.03-1.14,0-2.21-.44-3.03-1.25-.82-.81-1.27-1.9-1.27-3.05V24.11c0-2.37,1.93-4.3,4.29-4.3.16,0,.32,0,.48.03l45.15,5.08v-8.32c0-2.37,1.93-4.3,4.31-4.3,1.14,0,2.21.45,3.02,1.26l25.39,25.39c.81.81,1.26,1.89,1.26,3.04s-.45,2.23-1.26,3.04l-25.39,25.39c-.81.81-1.89,1.26-3.03,1.26Z" fill="#fa5330"/>
    <path d="M66.5,14.92c.41,0,.83.15,1.18.5l25.39,25.39c.66.66.66,1.72,0,2.38l-25.39,25.39c-.34.34-.76.5-1.18.5-.86,0-1.69-.67-1.69-1.68v-9.37c0-.94-.76-1.68-1.68-1.68-.06,0-.13,0-.19.01l-46.19,5.2c-.06,0-.13.01-.19.01-.91,0-1.68-.74-1.68-1.68V24.11c0-.94.76-1.68,1.68-1.68.06,0,.13,0,.19.01l46.19,5.2c.06,0,.13.01.19.01.91,0,1.68-.74,1.68-1.68v-9.37c0-1.01.83-1.68,1.69-1.68M66.5,9.68h0c-3.82,0-6.92,3.1-6.92,6.92v5.4l-42.24-4.76c-.26-.03-.52-.04-.78-.04-3.81,0-6.91,3.1-6.91,6.91v35.76c0,3.81,3.1,6.91,6.91,6.91.26,0,.52-.01.78-.04l42.24-4.75v5.4c0,3.81,3.11,6.92,6.92,6.92,1.84,0,3.57-.72,4.88-2.03l25.39-25.39c2.69-2.7,2.69-7.08,0-9.77l-25.39-25.39c-1.31-1.31-3.04-2.03-4.88-2.03h0Z" fill="#fff0e1"/>
  </g>
</svg>