<svg width="1200" height="750" viewBox="0 0 1200 750" fill="none" xmlns="http://www.w3.org/2000/svg">
<path d="M540.842 0H348.903H279.779L252.731 87.1553L377.454 247.942H399.994L540.842 0Z" fill="#666666"/>
<path d="M383.949 115.831L282.044 0H-0.0078125V300.138H383.949V115.831Z" fill="#444549"/>
<path d="M400.843 84.6845L529.004 0H685.336L524.006 106.876L514.02 257.779H268.803L400.843 84.6845Z" fill="#50575F"/>
<path d="M955.913 117.34L801.963 -0.128418H1054.9L955.913 117.34Z" fill="#666666"/>
<path d="M468.104 101.207L400.473 228.355V258.112L968.577 247.291L956.403 110.676L846.106 -0.371987H647.722L468.104 101.207Z" fill="#454444"/>
<path d="M925.442 134.494C933.049 114.931 993.679 30.6656 1016.77 -0.127441H1200.05V296.105L975.373 292.9C961.335 263.466 917.834 154.056 925.442 134.494Z" fill="#444549"/>
<path d="M1020.54 141.285L1091.27 -0.127024L1012.89 -0.12793C985.267 34.2879 921.366 124.983 921.366 141.285C921.366 157.588 944.914 218.721 956.688 247.25L1039.56 254.043L1020.54 141.285Z" fill="#7E7B6A"/>
<path d="M18.2443 194.738L0.0212097 209.787V749.981H1200.01V206.564L1182 209.567L1158.94 216.857L1136.24 209.567H1082.08L1049.96 216.857L1029.21 198.607L975.698 194.738L951.693 209.567L929.276 198.607H889.946L861.023 219.983L839.656 209.567L779.694 204.409L744.446 212.837L723.601 194.738H670.086L643.503 209.567L619.151 194.738H566.926L534.073 212.837L506.32 204.409H454.095L431.789 212.146L407.028 194.738H349.646L320.573 212.146L294.197 204.409L237.048 209.71L207.569 222.462L178.787 204.409L127.619 200.331L100.373 209.71L76.2718 194.738H18.2443Z" fill="#77B96B"/>
<path d="M31.9521 172.722C22.174 180.259 27.0365 192.603 35.3708 194.658C42.8298 196.497 49.8225 197.429 59.6123 194.658C69.0598 191.983 70.8726 183.083 66.7187 175.571C62.5648 168.06 45.2779 162.45 31.9521 172.722Z" fill="#F0B64D"/>
<path d="M681.441 173.7C671.663 181.237 676.526 193.581 684.86 195.636C692.319 197.476 699.312 198.408 709.102 195.636C718.549 192.962 720.362 184.061 716.208 176.55C712.054 169.038 694.767 163.428 681.441 173.7Z" fill="#F0B64D"/>
<path d="M741.741 198.926C734.43 204.562 738.066 213.792 744.298 215.328C749.875 216.704 755.104 217.401 762.424 215.328C769.488 213.328 770.844 206.673 767.738 201.057C764.632 195.44 751.706 191.245 741.741 198.926Z" fill="#F0B64D"/>
<path d="M467.337 187.978C460.026 193.614 463.661 202.843 469.893 204.38C475.471 205.755 480.699 206.453 488.02 204.38C495.084 202.38 496.439 195.725 493.333 190.109C490.227 184.492 477.301 180.297 467.337 187.978Z" fill="#F0B64D"/>
<path d="M141.403 185.49C133.789 190.711 136.906 200.129 143.043 202.009C148.535 203.693 153.717 204.68 161.141 203.018C168.305 201.414 170.029 194.844 167.24 189.064C164.451 183.283 151.778 178.376 141.403 185.49Z" fill="#F0B64D"/>
<path d="M578.441 177.03C571.13 182.666 574.766 191.896 580.997 193.432C586.575 194.808 591.803 195.505 599.124 193.432C606.188 191.432 607.543 184.777 604.437 179.161C601.331 173.544 588.405 169.349 578.441 177.03Z" fill="#F0B64D"/>
<path d="M890.748 182.144C883.4 187.731 886.975 196.985 893.196 198.562C898.764 199.974 903.988 200.706 911.322 198.682C918.399 196.728 919.799 190.082 916.73 184.445C913.661 178.809 900.763 174.529 890.748 182.144Z" fill="#F0B64D"/>
<path d="M785.519 182.369C774.8 190.632 780.13 204.163 789.266 206.416C797.443 208.432 805.108 209.454 815.84 206.416C826.197 203.484 828.184 193.727 823.63 185.493C819.077 177.259 800.127 171.109 785.519 182.369Z" fill="#F0B64D"/>
<path d="M282.226 187.83C292.004 195.368 287.142 207.712 278.808 209.767C271.349 211.606 264.356 212.538 254.566 209.767C245.119 207.092 243.306 198.192 247.46 190.68C251.614 183.169 268.901 177.558 282.226 187.83Z" fill="#F0B64D"/>
<path d="M328.416 193.95C335.232 199.204 331.843 207.808 326.033 209.24C320.834 210.522 315.96 211.172 309.136 209.24C302.55 207.376 301.287 201.172 304.182 195.936C307.078 190.7 319.128 186.79 328.416 193.95Z" fill="#F0B64D"/>
<path d="M1019.05 176.455C1028.27 184.667 1022.54 196.635 1014.08 198.093C1006.51 199.399 999.473 199.833 989.905 196.374C980.671 193.035 979.494 184.029 984.17 176.831C988.847 169.633 1006.49 165.264 1019.05 176.455Z" fill="#F0B64D"/>
<path d="M47.6757 167.205C51.0875 164.93 59.6851 161.064 66.7815 163.793C65.341 166.068 59.5031 169.934 47.6757 167.205Z" fill="#60F058"/>
<path d="M697.165 168.183C700.577 165.909 709.174 162.042 716.271 164.772C714.83 167.046 708.992 170.913 697.165 168.183Z" fill="#60F058"/>
<path d="M266.503 182.314C263.091 180.039 254.493 176.173 247.397 178.902C248.837 181.176 254.675 185.043 266.503 182.314Z" fill="#60F058"/>
<path d="M317.456 190.104C315.078 188.519 309.085 185.824 304.138 187.726C305.143 189.311 309.212 192.007 317.456 190.104Z" fill="#60F058"/>
<path d="M1003.76 169.837C1000.52 167.326 992.216 162.86 984.943 165.078C986.219 167.449 991.768 171.72 1003.76 169.837Z" fill="#60F058"/>
<path d="M899.578 179.395C901.76 177.405 907.46 173.72 912.808 174.892C912.029 176.667 908.294 180.053 899.578 179.395Z" fill="#60F058"/>
</svg>
