<svg width="1200" height="230" viewBox="0 0 1200 230" fill="none" xmlns="http://www.w3.org/2000/svg">
<path d="M1150.22 26.4512H1199.75L1199.75 230.197H0.177856V34.832L26.8074 30.5039L48.3259 49.6237L71.429 41.9869H126.55L159.245 49.6237L180.358 30.5039L234.823 26.4512L259.254 41.9869L282.069 30.5039H322.098L351.534 52.8993L373.281 41.9869L434.308 36.5831L470.181 45.4123L491.397 26.4512H545.862L572.917 41.9869L597.701 26.4512H650.854L684.291 45.4123L712.537 36.5831H765.689L788.391 44.6889L813.591 26.4512H871.993L901.583 44.6889L928.426 36.5831L986.59 42.1367L1016.59 55.4964L1045.89 36.5831L1097.96 32.31L1125.69 42.1367L1150.22 26.4512Z" fill="#80EA6E"/>
<path d="M530.56 10.4072C540.338 17.9445 535.476 30.2882 527.142 32.3434C519.683 34.1826 512.69 35.115 502.9 32.3434C493.453 29.6687 491.64 20.7683 495.794 13.2568C499.948 5.74543 517.235 0.135152 530.56 10.4072Z" fill="#F7B63F"/>
<path d="M470.26 35.633C477.572 41.2689 473.936 50.4988 467.704 52.0355C462.127 53.4107 456.898 54.1079 449.578 52.0355C442.514 50.0355 441.158 43.3804 444.264 37.7638C447.37 32.1473 460.296 27.9523 470.26 35.633Z" fill="#F7B63F"/>
<path d="M744.665 24.6848C751.976 30.3207 748.34 39.5505 742.109 41.0872C736.531 42.4625 731.302 43.1597 723.982 41.0872C716.918 39.0873 715.563 32.4321 718.669 26.8156C721.775 21.199 734.701 17.004 744.665 24.6848Z" fill="#F7B63F"/>
<path d="M1070.6 22.1973C1078.21 27.4178 1075.1 36.8356 1068.96 38.7165C1063.47 40.3999 1058.29 41.3868 1050.86 39.7247C1043.7 38.1207 1041.97 31.5513 1044.76 25.7707C1047.55 19.9901 1060.22 15.0826 1070.6 22.1973Z" fill="#F7B63F"/>
<path d="M633.561 13.737C640.872 19.3729 637.236 28.6028 631.004 30.1395C625.427 31.5148 620.198 32.2119 612.878 30.1395C605.814 28.1395 604.458 21.4844 607.564 15.8678C610.67 10.2513 623.596 6.05628 633.561 13.737Z" fill="#F7B63F"/>
<path d="M321.254 18.8505C328.602 24.4382 325.027 33.6918 318.805 35.2695C313.237 36.6814 308.013 37.413 300.68 35.3888C293.602 33.4354 292.203 26.7893 295.272 21.1524C298.341 15.5156 311.239 11.2356 321.254 18.8505Z" fill="#F7B63F"/>
<path d="M426.483 19.0764C437.202 27.3389 431.872 40.8703 422.736 43.1232C414.559 45.1395 406.893 46.1615 396.162 43.1232C385.805 40.1912 383.818 30.4344 388.372 22.2003C392.925 13.9661 411.875 7.81605 426.483 19.0764Z" fill="#F7B63F"/>
<path d="M129.622 21.5344C140.341 29.7969 135.011 43.3283 125.874 45.5812C117.698 47.5975 110.032 48.6195 99.3004 45.5812C88.944 42.6492 86.9567 32.8924 91.5102 24.6583C96.0638 16.4241 115.014 10.2741 129.622 21.5344Z" fill="#F7B63F"/>
<path d="M69.9972 33.3588C77.2902 38.9804 73.6636 48.187 67.4474 49.7198C61.8842 51.0916 56.6687 51.787 49.3669 49.7198C42.3206 47.7249 40.9685 41.0866 44.0667 35.4842C47.1648 29.8818 60.0582 25.6974 69.9972 33.3588Z" fill="#F7B63F"/>
<path d="M929.775 24.5375C919.997 32.0748 924.86 44.4186 933.194 46.4737C940.653 48.313 947.646 49.2454 957.436 46.4737C966.883 43.799 968.696 34.8986 964.542 27.3872C960.388 19.8758 943.101 14.2655 929.775 24.5375Z" fill="#F7B63F"/>
<path d="M883.586 30.6568C876.77 35.9106 880.159 44.5148 885.969 45.9474C891.168 47.2294 896.042 47.8793 902.866 45.9474C909.451 44.083 910.715 37.879 907.82 32.6431C904.924 27.4073 892.874 23.4967 883.586 30.6568Z" fill="#F7B63F"/>
<path d="M192.95 13.1621C183.732 21.3742 189.458 33.3418 197.917 34.8005C205.487 36.106 212.529 36.5399 222.097 33.0807C231.331 29.7424 232.508 20.7358 227.832 13.5381C223.155 6.34029 205.514 1.9706 192.95 13.1621Z" fill="#F7B63F"/>
<path d="M514.837 4.89031C511.425 2.61594 502.827 -1.2505 495.731 1.47875C497.171 3.75312 503.009 7.61956 514.837 4.89031Z" fill="#60F058"/>
<path d="M945.499 19.0207C948.911 16.7463 957.508 12.8799 964.605 15.6091C963.164 17.8835 957.326 21.7499 945.499 19.0207Z" fill="#60F058"/>
<path d="M894.546 26.8112C896.924 25.2258 902.917 22.5307 907.863 24.4331C906.859 26.0185 902.79 28.7136 894.546 26.8112Z" fill="#60F058"/>
<path d="M208.243 6.5439C211.485 4.0332 219.786 -0.433459 227.058 1.78544C225.783 4.15628 220.234 8.42715 208.243 6.5439Z" fill="#60F058"/>
<path d="M312.423 16.1019C310.242 14.1125 304.542 10.4267 299.194 11.5988C299.973 13.3741 303.708 16.7602 312.423 16.1019Z" fill="#60F058"/>
</svg>
