<svg width="510" height="568" viewBox="0 0 510 568" fill="none" xmlns="http://www.w3.org/2000/svg">
<path d="M188.801 5.60709C18.0023 28.0068 18.008 375.854 0.374878 567.468H509.973C492.814 419.711 478.263 126.317 357.733 24.2733C329.629 0.479748 264.325 -4.29816 188.801 5.60709Z" fill="#FFA35A"/>
<rect x="143.742" y="203.008" width="223.187" height="270.482" rx="111.593" fill="#CF724A"/>
<path d="M32.207 59.7096C0.285461 108.048 62.2284 133.053 97.1901 139.514L125.692 85.9312C107.831 57.0498 64.1285 11.3715 32.207 59.7096Z" fill="#FFA35A"/>
<path d="M474.806 53.6955C506.728 102.034 444.785 127.039 409.823 133.499L381.322 79.9171C399.183 51.0356 442.885 5.35734 474.806 53.6955Z" fill="#FFA35A"/>
<path d="M153.728 210.916C145.013 201.431 119.74 186.308 88.3657 201.688" stroke="#985133" stroke-width="7.00626" stroke-linecap="round"/>
<path d="M348.64 210.916C357.355 201.431 382.629 186.308 414.003 201.688" stroke="#985133" stroke-width="7.00626" stroke-linecap="round"/>
<path d="M181.987 316.623C191.921 314.553 214.77 312.525 226.69 320.969" stroke="#985133" stroke-width="9.19481" stroke-linecap="round"/>
<path d="M326.901 316.623C316.967 314.553 294.119 312.525 282.198 320.969" stroke="#985133" stroke-width="9.19481" stroke-linecap="round"/>
</svg>
