<svg width="1200" height="84" viewBox="0 0 1200 84" fill="none" xmlns="http://www.w3.org/2000/svg">
<path d="M967.472 0.186523C1010.33 0.186523 1073.88 24.5726 1117.48 24.5728C1142.22 24.5728 1172.19 16.7234 1200.1 9.93118C1200.1 47.3599 1200.11 43.3019 1200.12 40.0263C1200.11 43.841 1200.11 55.2489 1200.09 84.1218H0.0764149C0.0300888 -50.099 0.114278 64.4186 0.114295 20.9693C33.4607 14.1839 45.804 0.186523 96.729 0.186523C163.946 0.186523 178.596 24.5728 241.505 24.5728C304.413 24.5728 305.275 0.186523 383.695 0.186523C462.116 0.186523 468.663 24.5728 527.781 24.5728C586.899 24.5728 631.976 0.186523 676.315 0.186523C720.653 0.186523 789.378 24.5728 821.893 24.5728C854.408 24.5728 924.611 0.186523 967.472 0.186523Z" fill="#BFFEFA"/>
</svg>
