<svg width="1200" height="438" viewBox="0 0 1200 438" fill="none" xmlns="http://www.w3.org/2000/svg">
<path d="M967.387 0.357422C1010.25 0.357422 1073.8 24.7435 1117.4 24.7437C1142.11 24.7437 1172.04 16.9111 1199.93 10.1239C1199.93 88.6986 1200.02 349.116 1200.02 438.017H-0.0148926C-0.0148926 390.219 0.0150043 96.4576 0.0149918 21.1432C33.3727 14.359 45.7121 0.357422 96.6448 0.357422C163.862 0.357422 178.512 24.7437 241.421 24.7437C304.329 24.7437 305.191 0.357422 383.611 0.357422C462.031 0.357422 468.579 24.7437 527.697 24.7437C586.815 24.7437 631.892 0.357422 676.231 0.357422C720.569 0.357422 789.294 24.7437 821.809 24.7437C854.324 24.7437 924.526 0.357422 967.387 0.357422Z" fill="#4CCCC4"/>
</svg>
