<svg width="1200" height="268" viewBox="0 0 1200 268" fill="none" xmlns="http://www.w3.org/2000/svg">
<path d="M967.387 0.810059C1010.25 0.810059 1073.8 25.1961 1117.4 25.1963C1142.14 25.1964 1172.1 17.3469 1200.02 10.5547C1200.02 88.0705 1200.06 170.901 1200 268H-0.00784413C-0.0541702 133.779 0.0300191 65.0421 0.0300358 21.5928C33.3764 14.8074 45.7197 0.810059 96.6448 0.810059C163.862 0.810059 178.512 25.1963 241.421 25.1963C304.329 25.1963 305.191 0.810059 383.611 0.810059C462.031 0.810059 468.578 25.1963 527.696 25.1963C586.814 25.1963 631.892 0.810059 676.23 0.810059C720.569 0.810059 789.294 25.1963 821.809 25.1963C854.323 25.1963 924.527 0.810059 967.387 0.810059Z" fill="#BFFEFA"/>
</svg>
