<?xml version="1.0" encoding="UTF-8"?>
<svg id="page_2" data-name="page 2" xmlns="http://www.w3.org/2000/svg" viewBox="0 0 891.86 629.32">
  <g>
    <path d="M875.65,588.78c0,.7.01,1.39.01,2.05-.03,2.32-.07,4.01-1.14,6.53-1.5,3.23-4.28,6.62-7.38,9.32-2.34,2.02-4.86,3.66-7.15,4.54-2.92,1.05-5.47.91-8.41.95-83.86-.24-238.56.17-328.24,0-11.39.03-21.89-.03-32.86,0-11.03.06-19.54.76-29.14-5.49-10.91-6.68-19.51-20.03-18.83-32.23.96-136.45-1.83-458.13,1.01-518.16,3.68-13.72,15.19-23.77,30.31-26.89,7.98-1.94,16.46-2.87,24.69-3.71,97.75-10.68,195.5-10.14,293.63-5.16,28.69,1.24,72.21,2.1,82.28,34.88l.03.09c1.2,4.07,1.18,6.39,1.2,9.98-.5,37.05.36,173.46,0,238,.35,72.87-.23,233.99-.01,285.3Z" fill="#da8544"/>
    <path d="M16.21,588.78c0,.7-.01,1.39-.01,2.05.03,2.32.07,4.01,1.14,6.53,1.5,3.23,4.28,6.62,7.38,9.32,2.34,2.02,4.86,3.66,7.15,4.54,2.92,1.05,5.47.91,8.41.95,83.86-.24,238.56.17,328.24,0,11.39.03,21.89-.03,32.86,0,11.03.06,19.54.76,29.14-5.49,10.91-6.68,19.51-20.03,18.83-32.23-.96-136.45,1.83-458.13-1.01-518.16-3.68-13.72-15.19-23.77-30.31-26.89-7.98-1.94-16.46-2.87-24.69-3.71-97.75-10.68-195.5-10.14-293.63-5.16-28.69,1.24-72.21,2.1-82.28,34.88l-.03.09c-1.2,4.07-1.18,6.39-1.2,9.98.5,37.05-.36,173.46,0,238-.35,72.87.23,233.99.01,285.3Z" fill="#da8544"/>
    <path d="M852.71,594.36c-46.31-6.2-124.58-17.72-182.3-21.17-54.83-1.72-155.85,5.06-218.15,8.76-12.38,1.25-139.06-7.84-201.73-8.03-57.28-.52-172.02,9.53-210.32,12.13-5.18-11.97,7.16-426.62,8.19-551.55,117.52-14.33,238.54-10.63,356.42,1.91,16.67,1.66,33.02,10.39,39.3,26.35,5.56,5.13,5.11-21.33,38.73-25.62,117.12-14.04,232.37-14.25,349.88-4.23,20.88,1.78,20.25,8.09,20.88,13.76.49,13.85-.09,195.42,2.66,263.12-.09,3.04.34,3.88.21,5.12-.29,6.72-3.35,269.82-3.76,279.46h0Z" fill="#ffcf9f"/>
    <path d="M444.84,584.36c-7.98,13.3-22.59,16.24-37.5,15.91-46.92.03-93.05.06-142.01.02-77.95-.6-152.48.87-216.38-.61-7.27-.95-14.67-4.64-18.56-11.16-2.82-4.55-3.87-9.73-4.14-14.27-.39-50.61-.06-122.67-.29-195.34-.2-89.15.42-226.04.19-300.43-.7-15.08,3.04-36.37,18.5-43.03,1.02-.51,2.18-.92,3.21-.91.57.06.73.41.75.9.48,43.56-6.38,505.88-3.98,546.16.61,2.14,1.97,2.8,3.89,2.54,50.22-5.13,121.68-11.28,180.1-11.73,61.04-1,164.45,4.81,214.56,8.71.71.07,1.57.12,2.01.59.41.44.35,1.28-.31,2.57l-.04.08Z" fill="#eab275"/>
    <path d="M864.94,378.91c-.22,72.67.1,144.72-.28,195.34-.27,4.54-1.32,9.72-4.14,14.27-3.89,6.52-11.29,10.21-18.56,11.16-63.9,1.48-138.43.01-216.38.61-48.96.04-95.09.01-142.01-.02-12.24.27-24.28-1.66-32.62-9.73-1.81-1.76-3.45-3.8-4.88-6.18l-.05-.08c-.11-.22-.21-.43-.28-.63-.39-.94-.37-1.58-.03-1.94.01-.01.02-.02.04-.04.45-.43,1.28-.48,1.97-.55,50.12-3.91,153.53-9.72,214.57-8.71,58.41.44,136.21,14.14,186.42,19.27,1.92.27,3.28-.4,3.89-2.53,2.26-37.87-9.99-456.06-10.32-541.48-.02-5.47-.02-9.61.01-12.23.02-.5.18-.84.75-.9,1.03-.02,2.19.4,3.21.9,15.46,6.66,19.2,27.96,18.5,43.03-.23,74.4.39,211.29.19,300.44Z" fill="#eab275"/>
  </g>
  <circle cx="440.78" cy="307.88" r="151.75" fill="#2febf8"/>
  <text transform="translate(390.92 359.61)" fill="#231f20" font-family="MyriadPro-Bold, &apos;Myriad Pro&apos;" font-size="169" font-weight="700"><tspan x="0" y="0">2</tspan></text>
</svg>