<?xml version="1.0" encoding="UTF-8"?>
<svg id="Layer_1" data-name="Layer 1" xmlns="http://www.w3.org/2000/svg" viewBox="0 0 109.34 84.07">
  <g>
    <path d="M41.99,76.05c-2.3,0-4.47-.9-6.11-2.54l-25.39-25.39c-1.63-1.63-2.54-3.81-2.54-6.12s.9-4.49,2.54-6.12l25.39-25.39c1.64-1.64,3.81-2.54,6.11-2.54,4.78,0,8.67,3.88,8.67,8.66v3.45l40.3-4.54c.33-.04.65-.05.97-.05,4.77,0,8.65,3.88,8.65,8.66v35.76c0,4.77-3.88,8.66-8.65,8.66-.32,0-.65-.02-.97-.05l-40.3-4.54v3.45c0,2.39-1,4.7-2.74,6.32-1.62,1.51-3.72,2.34-5.93,2.34Z" fill="#fff0e1"/>
    <path d="M41.99,14.93c.86,0,1.69.67,1.69,1.68v9.37c0,.94.76,1.68,1.68,1.68.06,0,.13,0,.19-.01l46.19-5.2c.06,0,.13-.01.19-.01.91,0,1.68.74,1.68,1.68v35.76c0,.94-.76,1.68-1.68,1.68-.06,0-.13,0-.19-.01l-46.19-5.2c-.06,0-.13-.01-.19-.01-.91,0-1.68.74-1.68,1.68v9.37c0,1.01-.83,1.68-1.69,1.68-.41,0-.83-.15-1.18-.5l-25.39-25.39c-.66-.66-.66-1.72,0-2.38l25.39-25.39c.34-.34.76-.5,1.18-.5M41.99.98c-4.17,0-8.09,1.63-11.04,4.58L5.56,30.95c-6.1,6.1-6.1,16.01,0,22.11l25.39,25.39c2.96,2.95,6.88,4.58,11.04,4.58,7.14,0,13.17-4.8,15.04-11.34l33.15,3.73c.58.07,1.17.1,1.75.1,8.62,0,15.63-7.01,15.63-15.63V24.12c0-8.62-7.01-15.63-15.63-15.63-.58,0-1.17.03-1.75.1l-33.15,3.73c-1.87-6.54-7.91-11.34-15.04-11.34h0Z" fill="#fa5330"/>
  </g>
  <g>
    <path d="M41.99,71.69c-1.14,0-2.21-.45-3.02-1.26l-25.39-25.39c-.81-.81-1.26-1.89-1.26-3.04s.45-2.23,1.26-3.04l25.39-25.39c.81-.81,1.89-1.26,3.02-1.26,2.38,0,4.31,1.93,4.31,4.3v8.32l45.15-5.08c.16-.02.32-.03.48-.03,2.37,0,4.29,1.93,4.29,4.3v35.76c0,2.37-1.93,4.3-4.29,4.3-.16,0-.32,0-.48-.03l-45.15-5.08v8.32c0,1.21-.48,2.32-1.35,3.13-.8.75-1.85,1.17-2.96,1.17Z" fill="#fa5330"/>
    <path d="M41.99,14.93c.86,0,1.69.67,1.69,1.68v9.37c0,.94.76,1.68,1.68,1.68.06,0,.13,0,.19-.01l46.19-5.2c.06,0,.13-.01.19-.01.91,0,1.68.74,1.68,1.68v35.76c0,.94-.76,1.68-1.68,1.68-.06,0-.13,0-.19-.01l-46.19-5.2c-.06,0-.13-.01-.19-.01-.91,0-1.68.74-1.68,1.68v9.37c0,1.01-.83,1.68-1.69,1.68-.41,0-.83-.15-1.18-.5l-25.39-25.39c-.66-.66-.66-1.72,0-2.38l25.39-25.39c.34-.34.76-.5,1.18-.5M41.99,9.7c-1.84,0-3.57.72-4.87,2.03l-25.39,25.39c-2.7,2.7-2.7,7.08,0,9.78l25.39,25.39c1.31,1.31,3.04,2.03,4.88,2.03,3.82,0,6.92-3.1,6.92-6.92v-5.4l42.24,4.76c.26.03.52.04.78.04,3.81,0,6.91-3.1,6.91-6.91V24.12c0-3.81-3.1-6.91-6.91-6.91-.26,0-.52.01-.78.04l-42.24,4.76v-5.4c0-3.81-3.11-6.92-6.92-6.92h0Z" fill="#fff0e1"/>
  </g>
</svg>