<svg width="224" height="275" viewBox="0 0 224 275" fill="none" xmlns="http://www.w3.org/2000/svg">
<rect x="84.3788" y="98.7378" width="14.6888" height="175.312" fill="#2F2F2F"/>
<path d="M186.645 120.14C186.765 112.089 172.174 109.175 164.863 108.724L155.099 125.098L178.533 132.608C181.187 131.807 186.525 128.192 186.645 120.14Z" fill="#DE9566"/>
<path d="M0.255739 120.14C0.135542 112.089 14.7266 109.175 22.0372 108.724L31.8013 125.098L8.36747 132.608C5.71364 131.807 0.375938 128.192 0.255739 120.14Z" fill="#DE9566"/>
<path d="M143.812 4.15514C137.606 14.4391 146.398 19.2261 151.569 20.3342L159.105 13.4636C156.593 6.07582 150.018 -6.12884 143.812 4.15514Z" fill="#DE9566"/>
<path d="M223.401 39.4141C224.431 11.1634 177.163 9.8496 157.406 12.5118C131.361 12.7835 130.322 46.0903 114.349 49.8735C98.3759 53.6566 52.4068 28.0095 20.7087 55.3872C-1.67881 74.7233 0.843219 104.027 13.0334 119.72C4.14166 127.615 -5.21301 137.724 4.14163 148.104C16.6069 161.935 33.8983 139.942 35.8721 135.183C66.7715 142.287 100.926 147.505 142.793 139.942C162.229 153.502 182.734 158.295 184.145 139.942C184.685 132.924 175.129 122.803 163.499 119.72C174.906 101.54 171.366 75.8992 188.512 74.7233C205.658 73.5474 222.371 67.6648 223.401 39.4141Z" fill="#FFB688"/>
<path d="M127.71 11.1708C121.504 21.4547 130.296 26.2418 135.467 27.3498L143.003 20.4793C140.491 13.0914 133.916 0.886788 127.71 11.1708Z" fill="#FFB98C"/>
<path d="M194.937 74.0609C184.87 51.3179 192.624 24.346 197.906 14.3262C202.466 15.2712 213.104 18.432 218.656 25.4054C224.533 31.7262 224.226 42.3921 222.262 50.8408C217.747 70.2698 204.646 72.9735 194.937 74.0609Z" fill="#D47F5A"/>
<path d="M170.872 36.403C168.615 33.9462 162.068 30.0287 153.941 34.0127" stroke="#985133" stroke-width="3" stroke-linecap="round"/>
<path d="M209.292 40.4509C211.253 40.0424 215.763 39.6421 218.116 41.3088" stroke="#985133" stroke-width="3" stroke-linecap="round"/>
<path d="M117.105 46.9638C118.087 41.5112 117.508 29.4597 107.329 24.8745C106.651 29.2738 107.657 39.8508 117.105 46.9638Z" fill="#ED5677"/>
<path d="M118.551 48.0539C116.547 42.8886 109.77 32.9063 98.6939 34.2993C100.409 38.4071 106.781 46.9088 118.551 48.0539Z" fill="#ED5677"/>
<path d="M111.75 48.0843C117.207 43.3164 120.262 41.5582 124.266 40.1499C132.468 60.0551 162.925 80.4653 179.453 83.9004C180.148 98.0743 177.918 115.996 175.195 118.132C150.587 111.459 122.145 60.2911 111.75 48.0843Z" fill="#ED5677"/>
</svg>
