<svg width="224" height="267" viewBox="0 0 224 267" fill="none" xmlns="http://www.w3.org/2000/svg">
<rect x="84.4996" y="106.668" width="14.6888" height="159.758" fill="#2F2F2F"/>
<path d="M186.766 120.55C186.886 112.498 172.295 109.584 164.984 109.134L155.22 125.507L178.654 133.018C181.308 132.217 186.645 128.602 186.766 120.55Z" fill="#D58342"/>
<path d="M0.376619 120.55C0.256422 112.498 14.8475 109.584 22.1581 109.134L31.9221 125.507L8.48835 133.018C5.83452 132.217 0.496819 128.602 0.376619 120.55Z" fill="#D58342"/>
<path d="M143.933 4.49937C137.727 14.7833 146.519 19.5704 151.69 20.6784L159.226 13.8079C156.714 6.42006 150.139 -5.7846 143.933 4.49937Z" fill="#D58342"/>
<path d="M223.522 39.7579C224.552 11.5071 177.284 10.1934 157.527 12.8556C131.482 13.1272 130.443 46.4341 114.47 50.2172C98.4967 54.0004 52.5276 28.3532 20.8294 55.731C-1.55802 75.0671 0.964008 104.371 13.1541 120.064C4.26245 127.959 -5.09222 138.068 4.26242 148.447C16.7277 162.278 34.0191 140.286 35.9929 135.527C66.8923 142.631 101.047 147.849 142.914 140.286C162.35 153.845 182.854 158.639 184.266 140.286C184.806 133.268 175.249 123.147 163.62 120.064C175.027 101.883 171.487 76.243 188.633 75.0671C205.779 73.8912 222.492 68.0086 223.522 39.7579Z" fill="#FFA35A"/>
<path d="M127.831 11.5145C121.625 21.7985 130.417 26.5855 135.588 27.6935L143.124 20.823C140.612 13.4352 134.037 1.23054 127.831 11.5145Z" fill="#FFA35A"/>
<path d="M195.058 74.4051C184.991 51.6621 192.745 24.6903 198.027 14.6704C202.587 15.6154 213.225 18.7762 218.777 25.7496C224.654 32.0704 224.347 42.7363 222.383 51.1851C217.868 70.614 204.767 73.3177 195.058 74.4051Z" fill="#CF724A"/>
<path d="M170.993 36.7468C168.736 34.29 162.189 30.3724 154.061 34.3565" stroke="#985133" stroke-width="3" stroke-linecap="round"/>
<path d="M209.413 40.7947C211.374 40.3861 215.884 39.9858 218.237 41.6525" stroke="#985133" stroke-width="3" stroke-linecap="round"/>
<path d="M117.599 47.6797C118.582 42.2271 118.002 30.1756 107.824 25.5903C107.146 29.9897 108.152 40.5666 117.599 47.6797Z" fill="#FFE941"/>
<path d="M119.046 48.7697C117.042 43.6044 110.265 33.6221 99.1885 35.0151C100.903 39.1229 107.275 47.6246 119.046 48.7697Z" fill="#FFE941"/>
<path d="M112.245 48.8001C117.701 44.0322 120.757 42.2741 124.761 40.8657C132.963 60.7709 162.436 81.1507 178.964 84.5857C179.659 98.7597 177.429 116.681 174.706 118.818C150.098 112.145 122.639 61.0069 112.245 48.8001Z" fill="#FFE941"/>
</svg>
