<svg width="1200" height="105" viewBox="0 0 1200 105" fill="none" xmlns="http://www.w3.org/2000/svg">
<path d="M967.472 0.302734C1010.33 0.302734 1073.88 24.6888 1117.48 24.689C1142.22 24.6891 1172.19 16.8396 1200.1 10.0474C1200.1 87.5632 1200.15 7.9012 1200.09 105H0.0764149C0.0300888 -29.2204 0.114279 64.5348 0.114296 21.0855C33.4607 14.3001 45.804 0.302734 96.7291 0.302734C163.946 0.302734 178.596 24.689 241.505 24.689C304.413 24.689 305.275 0.302734 383.695 0.302734C462.116 0.302734 468.663 24.689 527.781 24.689C586.899 24.689 631.976 0.302734 676.315 0.302734C720.653 0.302734 789.378 24.689 821.893 24.689C854.408 24.689 924.611 0.302734 967.472 0.302734Z" fill="#BFFEFA"/>
</svg>
