<svg width="1200" height="332" viewBox="0 0 1200 332" fill="none" xmlns="http://www.w3.org/2000/svg">
<path d="M961.001 0.109375C1003.86 0.109375 1067.41 25.4996 1111.01 25.4998C1137.59 25.4999 1170.22 16.0622 1199.84 8.69457C1199.84 102.696 1199.93 242.013 1199.93 332.124H0.126633C0.126629 225.549 0.0668445 99.1767 0.0668335 20.2372C28.8127 12.8 42.7374 0.109375 90.2587 0.109375C157.476 0.109375 172.126 25.4998 235.034 25.4998C297.943 25.4998 298.805 0.109375 377.225 0.109375C455.645 0.109375 462.192 25.4998 521.31 25.4998C580.429 25.4998 625.506 0.109375 669.844 0.109375C714.183 0.109375 782.908 25.4998 815.423 25.4998C847.938 25.4998 918.14 0.109375 961.001 0.109375Z" fill="#20A098"/>
<path d="M967.444 70.0391C1010.3 70.0391 1073.86 94.4251 1117.46 94.4253C1142.17 94.4254 1172.1 86.5928 1199.99 79.8056C1199.99 158.38 1200.07 243.103 1200.07 332.004H0.0422363C0.0422363 284.206 0.0721256 166.139 0.072113 90.8249C33.4298 84.0406 45.7692 70.0391 96.702 70.0391C163.919 70.0391 178.569 94.4253 241.478 94.4253C304.386 94.4253 305.248 70.0391 383.668 70.0391C462.088 70.0391 468.636 94.4253 527.754 94.4253C586.872 94.4253 631.949 70.0391 676.288 70.0391C720.626 70.0391 789.351 94.4253 821.866 94.4253C854.381 94.4253 924.583 70.0391 967.444 70.0391Z" fill="#4CCCC4"/>
<path d="M967.439 143.878C1010.3 143.878 1073.85 168.264 1117.45 168.264C1142.18 168.264 1172.13 160.421 1200.04 153.631C1200.04 194.643 1200.12 233.547 1200.12 332.019H0.0476379C0.0476379 235.304 7.62939e-06 263.318 0 164.677C33.4079 157.898 45.7298 143.878 96.6964 143.878C163.914 143.878 178.564 168.264 241.472 168.264C304.381 168.264 305.242 143.878 383.663 143.878C462.083 143.878 468.63 168.264 527.748 168.264C586.866 168.264 631.944 143.878 676.282 143.878C720.621 143.878 789.346 168.264 821.86 168.264C854.375 168.264 924.578 143.878 967.439 143.878Z" fill="#7DEBE3"/>
</svg>
