<svg width="1200" height="354" viewBox="0 0 1200 354" fill="none" xmlns="http://www.w3.org/2000/svg">
<path d="M967.387 0.962402C1010.25 0.962402 1073.8 25.3485 1117.4 25.3486C1142.13 25.3487 1172.08 17.5055 1199.99 10.7151C1199.99 51.7275 1200.07 255.532 1200.07 354.004H-0.00390625C-0.00390625 257.289 -0.0515366 120.403 -0.0515442 21.7617C33.3563 14.9826 45.6783 0.962402 96.6449 0.962402C163.862 0.962402 178.512 25.3486 241.421 25.3486C304.329 25.3486 305.191 0.962402 383.611 0.962402C462.031 0.962402 468.579 25.3486 527.697 25.3486C586.815 25.3486 631.892 0.962402 676.231 0.962402C720.569 0.962402 789.294 25.3486 821.809 25.3486C854.324 25.3486 924.527 0.962402 967.387 0.962402Z" fill="#7DEBE3"/>
</svg>
