<svg width="1200" height="496" viewBox="0 0 1200 496" fill="none" xmlns="http://www.w3.org/2000/svg">
<path d="M960.945 0.0429688C1003.81 0.0429688 1067.36 25.4332 1110.96 25.4334C1137.54 25.4335 1170.16 15.9957 1199.79 8.62817C1199.79 102.629 1199.88 406.085 1199.88 496.197H0.0711823C0.0711789 389.622 0.011394 99.1103 0.0113831 20.1708C28.7572 12.7336 42.682 0.0429688 90.2032 0.0429688C157.421 0.0429688 172.07 25.4334 234.979 25.4334C297.887 25.4334 298.749 0.0429688 377.169 0.0429688C455.59 0.0429688 462.137 25.4334 521.255 25.4334C580.373 25.4334 625.451 0.0429688 669.789 0.0429688C714.128 0.0429688 782.852 25.4334 815.367 25.4334C847.882 25.4334 918.085 0.0429688 960.945 0.0429688Z" fill="#20A098"/>
</svg>
