<?xml version="1.0" encoding="UTF-8"?>
<svg id="Layer_1" data-name="Layer 1" xmlns="http://www.w3.org/2000/svg" xmlns:xlink="http://www.w3.org/1999/xlink" viewBox="0 0 1200 750">
  <rect x="-50.69" y="-11.31" width="1305.87" height="780.18" fill="#fff0e1"/>
  <circle cx="927.21" cy="26.29" r="30.98" fill="#fa5330"/>
  <circle cx="1109.23" cy="41.44" r="12.68" fill="#fa5330"/>
  <rect x="482.82" y="697.55" width="93.94" height="93.94" rx="7.23" ry="7.23" transform="translate(-170.14 157.07) rotate(-14.56)" fill="#fa5330"/>
  <rect x="430.84" y="132.06" width="35.45" height="35.45" rx="7.23" ry="7.23" transform="translate(-24.35 151.37) rotate(-18.66)" fill="#fa5330"/>
  <rect x="207.97" y="694.69" width="99.67" height="99.67" rx="7.23" ry="7.23" fill="#2febf8"/>
  <rect x="929.64" y="717.89" width="81.74" height="81.74" rx="7.23" ry="7.23" transform="translate(181.58 -187.39) rotate(12.16)" fill="#2febf8"/>
  <rect x="234.76" y="58.62" width="35.45" height="35.45" rx="7.23" ry="7.23" transform="translate(50.84 -93.7) rotate(23.32)" fill="#2febf8"/>
  <rect x="-112.7" y="251.1" width="145.4" height="145.4" rx="11.05" ry="11.05" fill="#faca32"/>
  <rect x="1134.23" y="75.42" width="53.5" height="53.5" rx="7.19" ry="7.19" transform="translate(11.6 295.11) rotate(-14.56)" fill="#faca32"/>
  <circle cx="527.61" cy="488.47" r="31.31" fill="#fa5330"/>
  <circle cx="-40" cy="523.56" r="42.77" fill="#fa5330"/>
  <circle cx="174.75" cy="256.68" r="42.95" fill="#2febf8"/>
  <circle cx="61.37" cy="609.99" r="15.47" fill="#2febf8"/>
  <circle cx="1255.18" cy="323.8" r="80.56" fill="#2febf8"/>
  <circle cx="1154.82" cy="523.56" r="50.72" fill="#faca32"/>
  <circle cx="791.46" cy="714.49" r="18.28" fill="#faca32"/>
  <circle cx="12.25" cy="766.65" r="66.68" fill="#faca32"/>
  <path d="M1156.84,707.49l44.07,76.33c3.34,5.79-.84,13.03-7.52,13.03h-88.13c-6.69,0-10.87-7.24-7.52-13.03l44.07-76.33c3.34-5.79,11.7-5.79,15.05,0Z" fill="#fa5330"/>
  <path d="M57.27,42.66l70.33,52.76c3.74,2.81,3.04,8.61-1.26,10.45l-80.86,34.53c-4.3,1.84-8.98-1.67-8.42-6.31l10.53-87.29c.56-4.64,5.94-6.94,9.68-4.13Z" fill="#fa5330"/>
  <path d="M729.31-29.42l11.65,56.53c.88,4.29-3.21,7.93-7.36,6.55l-54.79-18.17c-4.16-1.38-5.26-6.74-1.99-9.65l43.13-38.36c3.27-2.91,8.47-1.19,9.35,3.1Z" fill="#2febf8"/>
  <path d="M411.36,285.77l52.53,40.43c3.99,3.07,3.16,9.3-1.49,11.22l-61.28,25.28c-4.65,1.92-9.63-1.92-8.97-6.9l8.75-65.7c.66-4.99,6.48-7.38,10.46-4.32Z" fill="#faca32"/>
  <path d="M322.64,607.38c-29.28,6.62-45.11-8.17-41.29-34.72s24.06-52.74,50.86-54.05c11.25-.55,23.56,4.22,28.45,14.36s-1.58,24.98-12.83,25.49c-7.39.33-14.08-5.36-16.87-12.21s-2.4-14.59-1.14-21.88c3.2-18.44,12.37-36.62,28.07-46.8,15.71-10.18,38.45-10.36,51.99,2.57" fill="none" stroke="#2febf8" stroke-linecap="round" stroke-miterlimit="10" stroke-width="6"/>
  <path d="M111.12,458.41c3.99,8.42,13.51,12.98,22.76,14.15,22.08,2.77,45.06-12.16,51.49-33.46,1.46-4.84,2.13-10.14.47-14.92s-6.09-8.84-11.15-8.82c-5.76.03-10.59,5.62-10.66,11.38s3.92,11.1,9.11,13.61c5.19,2.51,11.32,2.49,16.89,1,14.38-3.85,25.35-17.93,25.57-32.81.22-14.88-10.35-29.28-24.61-33.54" fill="none" stroke="#fa5330" stroke-linecap="round" stroke-miterlimit="10" stroke-width="6"/>
  <path d="M430.08,45.41c9.05-6.44,18.22-12.94,28.54-17.03,10.33-4.09,22.09-5.6,32.55-1.85,10.45,3.76,19.1,13.56,19.35,24.66.15,6.95-3.51,14.34-10.02,16.81-6.5,2.46-15.18-2-15.51-8.94-.23-4.91,3.56-9.37,8.15-11.12s9.75-1.24,14.49.07c12.83,3.56,23.86,13.11,29.23,25.29,5.37,12.18,4.98,26.76-1.04,38.64" fill="none" stroke="#faca32" stroke-linecap="round" stroke-miterlimit="10" stroke-width="6"/>
  <path d="M1079.8,192.98c-8.57,6.47-13.9,17.29-13.01,27.99s8.31,20.78,18.53,24.09c10.22,3.31,22.57-.84,28.11-10.04,3.43-5.7,3.5-14.35-2.17-17.83-3.42-2.1-8-1.61-11.44.45-3.44,2.06-5.9,5.46-7.72,9.03-6.02,11.8-5.61,27.06,2.41,37.6s23.81,14.91,35.46,8.61" fill="none" stroke="#fa5330" stroke-linecap="round" stroke-miterlimit="10" stroke-width="6"/>
  <g>
    <image width="507" height="668" transform="translate(569 44.65)" xlink:href="bg-pg3-1.png"/>
    <image width="506" height="668" transform="translate(139 41.65)" xlink:href="bg-pg3-2.png"/>
    <path d="M1034.87,644.09c0,.7.01,1.39.01,2.05-.03,2.32-.07,4.01-1.14,6.53-1.5,3.23-4.28,6.62-7.38,9.32-2.34,2.02-4.86,3.66-7.15,4.54-2.92,1.05-5.47.91-8.41.95-83.86-.24-238.56.17-328.24,0-11.39.03-21.89-.03-32.86,0-11.03.06-19.54.76-29.14-5.49-10.91-6.68-19.51-20.03-18.83-32.23.96-136.45-1.83-458.13,1.01-518.16,3.68-13.72,15.19-23.77,30.31-26.89,7.98-1.94,16.46-2.87,24.69-3.71,97.75-10.68,195.5-10.14,293.63-5.16,28.69,1.24,72.21,2.1,82.28,34.88l.03.09c1.2,4.07,1.18,6.39,1.2,9.98-.5,37.05.36,173.46,0,238,.35,72.87-.23,233.99-.01,285.3Z" fill="#da8544"/>
    <path d="M175.43,644.09c0,.7-.01,1.39-.01,2.05.03,2.32.07,4.01,1.14,6.53,1.5,3.23,4.28,6.62,7.38,9.32,2.34,2.02,4.86,3.66,7.15,4.54,2.92,1.05,5.47.91,8.41.95,83.86-.24,238.56.17,328.24,0,11.39.03,21.89-.03,32.86,0,11.03.06,19.54.76,29.14-5.49,10.91-6.68,19.51-20.03,18.83-32.23-.96-136.45,1.83-458.13-1.01-518.16-3.68-13.72-15.19-23.77-30.31-26.89-7.98-1.94-16.46-2.87-24.69-3.71-97.75-10.68-195.5-10.14-293.63-5.16-28.69,1.24-72.21,2.1-82.28,34.88l-.03.09c-1.2,4.07-1.18,6.39-1.2,9.98.5,37.05-.36,173.46,0,238-.35,72.87.23,233.99.01,285.3Z" fill="#da8544"/>
    <path d="M1011.93,649.67c-46.31-6.2-124.58-17.72-182.3-21.17-54.83-1.72-155.85,5.06-218.15,8.76-12.38,1.25-139.06-7.84-201.73-8.03-57.28-.52-172.02,9.53-210.32,12.13-5.18-11.97,7.16-426.62,8.19-551.55,117.52-14.33,238.54-10.63,356.42,1.91,16.67,1.66,33.02,10.39,39.3,26.35,5.56,5.13,5.11-21.33,38.73-25.62,117.12-14.04,232.37-14.25,349.88-4.23,20.88,1.78,20.25,8.09,20.88,13.76.49,13.85-.09,195.42,2.66,263.12-.09,3.04.34,3.88.21,5.12-.29,6.72-3.35,269.82-3.76,279.46h0Z" fill="#ffcf9f"/>
    <path d="M604.06,639.67c-7.98,13.3-22.59,16.24-37.5,15.91-46.92.03-93.05.06-142.01.02-77.95-.6-152.48.87-216.38-.61-7.27-.95-14.67-4.64-18.56-11.16-2.82-4.55-3.87-9.73-4.14-14.27-.39-50.61-.06-122.67-.29-195.34-.2-89.15.42-226.04.19-300.43-.7-15.08,3.04-36.37,18.5-43.03,1.02-.51,2.18-.92,3.21-.91.57.06.73.41.75.9.48,43.56-6.38,505.88-3.98,546.16.61,2.14,1.97,2.8,3.89,2.54,50.22-5.13,121.68-11.28,180.1-11.73,61.04-1,164.45,4.81,214.56,8.71.71.07,1.57.12,2.01.59.41.44.35,1.28-.31,2.57l-.04.08Z" fill="#eab275"/>
    <path d="M1024.16,434.22c-.22,72.67.1,144.72-.28,195.34-.27,4.54-1.32,9.72-4.14,14.27-3.89,6.52-11.29,10.21-18.56,11.16-63.9,1.48-138.43.01-216.38.61-48.96.04-95.09.01-142.01-.02-12.24.27-24.28-1.66-32.62-9.73-1.81-1.76-3.45-3.8-4.88-6.18l-.05-.08c-.11-.22-.21-.43-.28-.63-.39-.94-.37-1.58-.03-1.94.01-.01.02-.02.04-.04.45-.43,1.28-.48,1.97-.55,50.12-3.91,153.53-9.72,214.57-8.71,58.41.44,136.21,14.14,186.42,19.27,1.92.27,3.28-.4,3.89-2.53,2.26-37.87-9.99-456.06-10.32-541.48-.02-5.47-.02-9.61.01-12.23.02-.5.18-.84.75-.9,1.03-.02,2.19.4,3.21.9,15.46,6.66,19.2,27.96,18.5,43.03-.23,74.4.39,211.29.19,300.44Z" fill="#eab275"/>
  </g>
  <circle cx="600" cy="363.2" r="151.75" fill="#faca32"/>
  <text transform="translate(550.14 414.92)" fill="#231f20" font-family="MyriadPro-Bold, &apos;Myriad Pro&apos;" font-size="169" font-weight="700"><tspan x="0" y="0">3</tspan></text>
</svg>