<?xml version="1.0" encoding="UTF-8"?>
<svg id="Layer_1" data-name="Layer 1" xmlns="http://www.w3.org/2000/svg" viewBox="0 0 512.32 478.25">
  <g id="surface1">
    <path d="M207.48,470.03c-33.1-9.9-42.6-50.7-21.5-77.1-12.9-8.9-21.7-22.6-26.2-37.8L74.78,48.43c-7.3-11.1-21.8-13-29.6-1.1-7.1,10.9,2.2,20.5-6.2,29.9-8.9,10-24.2,4.7-27.5-8.2C.68,26.33,46.58-8.07,84.18,13.53c29.6,17,28.2,66.5,41.1,95.3l360.1-.2c13,0,21.9,9,18.8,22.5-18.8,52.9-26.9,116.2-46.6,168.1-7.3,19.4-31.1,42.5-52.3,42.5h-216.3c3.2,16.7,15.1,28.9,31.7,31.3l200.7,1c13.7,5,14.3,23.2,1.4,30.1,17.1,37.9-15.9,77.6-55.4,66-27.1-7.9-38.2-39.2-29.2-65.4h-75.4c14.8,37.6-16.5,77.1-55.4,65.4h0l.1-.1ZM399.88,209.43h48.5l19.2-67.7h-58.5l-9.2,67.7ZM316.78,209.43h50.8l9.2-67.7h-60v67.7ZM235.98,209.43h48.5v-67.7h-58.5l10,67.7ZM152.08,209.43h49.3l-7.7-67.7h-60l18.5,67.7h-.1ZM385.98,308.63c44.3,7.6,45.5-35.8,53.9-67.7h-44.6l-9.2,67.7h-.1ZM316.78,308.63h36.9l9.2-67.7h-46.2v67.7h.1ZM247.48,308.63h36.9v-67.7h-44.6l7.7,67.7ZM216.68,308.63l-11.5-67.7h-41.6l-1.7,3.2,17.9,64.5h36.9ZM391.48,414.13c-14.5-13.4-33.1,8.4-20.3,21.5,13.2,13.5,34-8.9,20.3-21.5ZM220.58,439.53c19.6,0,18.6-29.2,0-29.2s-19.6,29.2,0,29.2Z"/>
  </g>
</svg>