<?xml version="1.0" encoding="UTF-8"?>
<svg xmlns="http://www.w3.org/2000/svg" xmlns:xlink="http://www.w3.org/1999/xlink" width="500px" height="465px" viewBox="0 0 499 465" version="1.1">
<g id="surface1">
<path style=" stroke:none;fill-rule:nonzero;fill:rgb(0%,0%,0%);fill-opacity:1;" d="M 197.570312 463.214844 C 164.488281 453.273438 154.9375 412.546875 176.027344 386.097656 C 163.121094 377.1875 154.320312 363.460938 149.824219 348.289062 L 64.835938 41.550781 C 57.554688 30.445312 43.019531 28.59375 35.261719 40.46875 C 28.140625 51.355469 37.503906 60.929688 29.089844 70.386719 C 20.214844 80.347656 4.882812 75.125 1.609375 62.160156 C -9.195312 19.457031 36.710938 -14.964844 74.332031 6.640625 C 103.980469 23.664062 102.496094 73.113281 115.386719 101.910156 L 475.453125 101.753906 C 488.441406 101.753906 497.351562 110.734375 494.265625 124.269531 C 475.4375 177.21875 467.320312 240.460938 447.671875 292.332031 C 440.339844 311.691406 416.585938 334.867188 395.355469 334.867188 L 179.09375 334.867188 C 182.304688 351.523438 194.238281 363.816406 210.816406 366.183594 L 411.5625 367.136719 C 425.214844 372.125 425.867188 390.386719 412.957031 397.199219 C 430.070312 435.140625 397.0625 474.789062 357.605469 463.242188 C 330.476562 455.304688 319.359375 424.027344 328.390625 397.859375 L 252.972656 397.859375 C 267.761719 435.472656 236.519531 474.925781 197.5625 463.214844 Z M 389.96875 202.59375 L 438.453125 202.59375 C 438.453125 202.59375 457.695312 134.882812 457.695312 134.882812 L 399.207031 134.882812 C 399.207031 134.882812 389.96875 202.59375 389.96875 202.59375 Z M 306.855469 202.59375 L 357.648438 202.59375 C 357.648438 202.59375 366.882812 134.882812 366.882812 134.882812 L 306.855469 134.882812 C 306.855469 134.882812 306.855469 202.59375 306.855469 202.59375 Z M 226.042969 202.59375 L 274.523438 202.59375 C 274.523438 202.59375 274.523438 134.882812 274.523438 134.882812 L 216.039062 134.882812 C 216.039062 134.882812 226.042969 202.59375 226.042969 202.59375 Z M 142.160156 202.59375 L 191.417969 202.59375 C 191.417969 202.59375 183.722656 134.882812 183.722656 134.882812 L 123.695312 134.882812 C 123.695312 134.882812 142.160156 202.59375 142.160156 202.59375 Z M 376.113281 301.804688 C 420.421875 309.359375 421.617188 266.050781 429.988281 234.09375 L 385.351562 234.09375 C 385.351562 234.09375 376.113281 301.804688 376.113281 301.804688 Z M 306.855469 301.804688 L 343.796875 301.804688 C 343.796875 301.804688 353.035156 234.09375 353.035156 234.09375 L 306.855469 234.09375 C 306.855469 234.09375 306.855469 301.804688 306.855469 301.804688 Z M 237.589844 301.804688 L 274.53125 301.804688 C 274.53125 301.804688 274.53125 234.09375 274.53125 234.09375 L 229.894531 234.09375 C 229.894531 234.09375 237.589844 301.804688 237.589844 301.804688 Z M 206.808594 301.804688 L 195.261719 234.09375 L 153.699219 234.09375 C 153.699219 234.09375 151.976562 237.339844 151.976562 237.339844 L 169.859375 301.804688 Z M 381.550781 407.257812 C 367.066406 393.894531 348.441406 415.683594 361.269531 428.800781 C 374.496094 442.328125 395.257812 419.914062 381.550781 407.257812 Z M 210.652344 432.648438 C 230.207031 432.648438 229.242188 403.402344 210.652344 403.402344 C 192.0625 403.402344 191.097656 432.648438 210.652344 432.648438 Z M 210.652344 432.648438 "/>
</g>
</svg>
